G04 DipTrace 3.0.0.1*
G04 BottomSilk.gbr*
%MOIN*%
G04 #@! TF.FileFunction,Legend,Bot*
G04 #@! TF.Part,Single*
%ADD10C,0.01*%
%ADD12C,0.002992*%
%ADD37C,0.006176*%
%FSLAX26Y26*%
G04*
G70*
G90*
G75*
G01*
G04 BotSilk*
%LPD*%
X417302Y704311D2*
D10*
Y653170D1*
X469657Y1239003D2*
D12*
X478633D1*
X499577D2*
X508553D1*
X520521D2*
X556425D1*
X568393D2*
X577369D1*
X607289D2*
X643193D1*
X664137D2*
X676105D1*
X694057D2*
X706025D1*
X723977D2*
X759881D1*
X771849D2*
X780825D1*
X813737D2*
X843657D1*
X469657Y1236011D2*
X478633D1*
X499577D2*
X508553D1*
X519498D2*
X556425D1*
X568393D2*
X577369D1*
X606266D2*
X643193D1*
X662642D2*
X676567D1*
X693022D2*
X706487D1*
X722954D2*
X759881D1*
X771849D2*
X780825D1*
X811893D2*
X846649D1*
X469657Y1233019D2*
X478633D1*
X499577D2*
X508553D1*
X518619D2*
X556425D1*
X568393D2*
X577369D1*
X605376D2*
X643193D1*
X661399D2*
X677309D1*
X692027D2*
X707241D1*
X722064D2*
X759881D1*
X771849D2*
X780825D1*
X810292D2*
X843657D1*
X469657Y1230027D2*
X478633D1*
X499577D2*
X508553D1*
X518157D2*
X527055D1*
X547449D2*
X556425D1*
X568393D2*
X577369D1*
X604808D2*
X616853D1*
X631687D2*
X643193D1*
X660247D2*
X678096D1*
X691078D2*
X708121D1*
X721508D2*
X730511D1*
X750905D2*
X759881D1*
X771849D2*
X780825D1*
X809083D2*
X820308D1*
X837673D2*
X840665D1*
X469657Y1227035D2*
X478633D1*
X499577D2*
X508553D1*
X518257D2*
X528105D1*
X547449D2*
X556425D1*
X568393D2*
X577369D1*
X604515D2*
X615103D1*
X632429D2*
X643193D1*
X659275D2*
X678734D1*
X690068D2*
X709026D1*
X721332D2*
X731561D1*
X750905D2*
X759881D1*
X771849D2*
X780825D1*
X808366D2*
X818548D1*
X469657Y1224043D2*
X478633D1*
X499577D2*
X508553D1*
X519040D2*
X529497D1*
X547449D2*
X556425D1*
X568393D2*
X577369D1*
X604383D2*
X614101D1*
X633204D2*
X643193D1*
X658570D2*
X679475D1*
X689161D2*
X710032D1*
X721448D2*
X732953D1*
X750905D2*
X759881D1*
X771849D2*
X780825D1*
X808010D2*
X817477D1*
X469657Y1221051D2*
X478645D1*
X499577D2*
X508553D1*
X520342D2*
X556425D1*
X568393D2*
X577381D1*
X604329D2*
X613615D1*
X633716D2*
X643193D1*
X657870D2*
X680630D1*
X688538D2*
X696587D1*
X703045D2*
X711032D1*
X722891D2*
X759881D1*
X771849D2*
X780837D1*
X807853D2*
X846649D1*
X469657Y1218059D2*
X478762D1*
X499565D2*
X508553D1*
X524470D2*
X556425D1*
X568393D2*
X577498D1*
X604308D2*
X613417D1*
X633889D2*
X643193D1*
X656911D2*
X667717D1*
X673227D2*
X682089D1*
X688073D2*
X695833D1*
X703150D2*
X711987D1*
X728721D2*
X759881D1*
X771849D2*
X780942D1*
X807790D2*
X846649D1*
X469657Y1215067D2*
X479259D1*
X499451D2*
X508553D1*
X534971D2*
X556425D1*
X568393D2*
X577778D1*
X604301D2*
X613447D1*
X633633D2*
X643193D1*
X655706D2*
X665955D1*
X673610D2*
X694953D1*
X703531D2*
X713013D1*
X738513D2*
X759881D1*
X771849D2*
X781323D1*
X807778D2*
X846649D1*
X469657Y1212075D2*
X480463D1*
X498989D2*
X508553D1*
X547449D2*
X556425D1*
X568393D2*
X579116D1*
X604310D2*
X613878D1*
X632943D2*
X643193D1*
X654446D2*
X664848D1*
X674339D2*
X694048D1*
X704248D2*
X714020D1*
X750905D2*
X759881D1*
X771849D2*
X782040D1*
X807874D2*
X817279D1*
X837123D2*
X846637D1*
X469657Y1209083D2*
X482377D1*
X497966D2*
X508541D1*
X547449D2*
X556413D1*
X568393D2*
X582931D1*
X604414D2*
X614889D1*
X632074D2*
X643193D1*
X653382D2*
X663981D1*
X675212D2*
X693042D1*
X705027D2*
X714978D1*
X750905D2*
X759869D1*
X771849D2*
X782815D1*
X808264D2*
X818329D1*
X836073D2*
X846520D1*
X469657Y1206091D2*
X484617D1*
X496585D2*
X508424D1*
X526505D2*
X529497D1*
X547449D2*
X556296D1*
X568393D2*
X588011D1*
X604807D2*
X616265D1*
X631225D2*
X643193D1*
X652626D2*
X663054D1*
X676115D2*
X692042D1*
X705654D2*
X715993D1*
X729961D2*
D3*
X750905D2*
X759752D1*
X771849D2*
X783382D1*
X809097D2*
X819721D1*
X834681D2*
X846022D1*
X469657Y1203099D2*
X507927D1*
X524156D2*
X555799D1*
X568393D2*
X593056D1*
X605638D2*
X643193D1*
X651911D2*
X662203D1*
X677109D2*
X691084D1*
X706315D2*
X716895D1*
X727679D2*
X759255D1*
X771849D2*
X801769D1*
X810361D2*
X844808D1*
X469657Y1200107D2*
X506723D1*
X522110D2*
X554595D1*
X568393D2*
X596829D1*
X606875D2*
X643193D1*
X651022D2*
X661648D1*
X678011D2*
X690044D1*
X707183D2*
X717474D1*
X725929D2*
X758051D1*
X771849D2*
X802819D1*
X812089D2*
X842829D1*
X469657Y1197115D2*
X504809D1*
X524045D2*
X552681D1*
X568393D2*
X599373D1*
X608465D2*
X643193D1*
X650070D2*
X661343D1*
X678633D2*
X689014D1*
X708128D2*
X717789D1*
X726222D2*
X756137D1*
X771849D2*
X803836D1*
X814296D2*
X840348D1*
X469657Y1194123D2*
X478633D1*
X484617D2*
X502569D1*
X526505D2*
X550441D1*
X568393D2*
X577369D1*
X583353D2*
X601305D1*
X610281D2*
X628233D1*
X634217D2*
X643193D1*
X649177D2*
X661145D1*
X679097D2*
X688073D1*
X709017D2*
X717993D1*
X726969D2*
X753897D1*
X771849D2*
X780825D1*
X786809D2*
X804761D1*
X816729D2*
X837673D1*
X469657Y1191131D2*
X478633D1*
X634217D2*
X643193D1*
X469657Y1188139D2*
X478633D1*
X634217D2*
X643193D1*
X469657Y1185147D2*
X478633D1*
X634217D2*
X643193D1*
X469657Y1182155D2*
X478633D1*
X634217D2*
X643193D1*
X469657Y1179163D2*
X478633D1*
X634217D2*
X643193D1*
X469657Y1176171D2*
X478633D1*
X634217D2*
X643193D1*
X469657Y1173179D2*
X478633D1*
X634217D2*
X643193D1*
X469657Y1170187D2*
X478633D1*
X469657Y1167195D2*
X478633D1*
X433753Y1164203D2*
X448713D1*
X469657D2*
X478633D1*
X487609D2*
X499577D1*
X529497D2*
X547449D1*
X568393D2*
X577369D1*
X598313D2*
X607289D1*
X646185D2*
X667129D1*
X694057D2*
X712009D1*
X744921D2*
X756889D1*
X762873D2*
X771849D1*
X783817D2*
X792793D1*
X831689D2*
X849641D1*
X873577D2*
X891529D1*
X429968Y1161211D2*
X452612D1*
X469657D2*
X503362D1*
X526619D2*
X551112D1*
X568393D2*
X577369D1*
X598313D2*
X607289D1*
X641801D2*
X669995D1*
X691191D2*
X715908D1*
X741022D2*
X771849D1*
X783817D2*
X792793D1*
X827790D2*
X852633D1*
X870597D2*
X894292D1*
X426922Y1158219D2*
X455605D1*
X469657D2*
X506408D1*
X524022D2*
X553886D1*
X568393D2*
X577369D1*
X598313D2*
X607289D1*
X637884D2*
X672487D1*
X688699D2*
X718901D1*
X738029D2*
X771849D1*
X783817D2*
X792793D1*
X824786D2*
X855625D1*
X867722D2*
X896338D1*
X425813Y1155227D2*
X457759D1*
X469657D2*
X507517D1*
X521864D2*
X554198D1*
X568393D2*
X577369D1*
X598313D2*
X607289D1*
X634217D2*
X674264D1*
X686922D2*
X721055D1*
X735875D2*
X771849D1*
X783817D2*
X792793D1*
X822526D2*
X858617D1*
X865228D2*
X897011D1*
X425216Y1152235D2*
X434341D1*
X444545D2*
X459205D1*
X469657D2*
X485091D1*
X495997D2*
X508114D1*
X520138D2*
X532489D1*
X547449D2*
X553433D1*
X568393D2*
X577369D1*
X598313D2*
X607289D1*
X637209D2*
X646185D1*
X663587D2*
X675274D1*
X685912D2*
X697637D1*
X708891D2*
X722501D1*
X734429D2*
X748387D1*
X759293D2*
X771849D1*
X783817D2*
X792793D1*
X820699D2*
X835845D1*
X846649D2*
X854222D1*
X863451D2*
X877744D1*
X891529D2*
X897513D1*
X424948Y1149243D2*
X432591D1*
X448590D2*
X460015D1*
X469657D2*
X482958D1*
X497747D2*
X508382D1*
X518882D2*
X529497D1*
X568393D2*
X577369D1*
X598313D2*
X607289D1*
X640201D2*
X643193D1*
X665529D2*
X675750D1*
X685424D2*
X695887D1*
X711383D2*
X723311D1*
X733619D2*
X746254D1*
X761043D2*
X771849D1*
X783817D2*
X792793D1*
X819172D2*
X832240D1*
X849641D2*
D3*
X862440D2*
X873694D1*
X424840Y1146251D2*
X431589D1*
X450185D2*
X460406D1*
X469657D2*
X481239D1*
X498749D2*
X508490D1*
X518150D2*
X526505D1*
X568393D2*
X577369D1*
X598313D2*
X607289D1*
X667129D2*
X675844D1*
X685213D2*
X694885D1*
X713160D2*
X723702D1*
X733228D2*
X744535D1*
X762045D2*
X771849D1*
X783817D2*
X792793D1*
X818014D2*
X829867D1*
X861952D2*
X871950D1*
X424799Y1143259D2*
X431103D1*
X451055D2*
X460575D1*
X469657D2*
X479997D1*
X499235D2*
X508531D1*
X517788D2*
X559417D1*
X568393D2*
X577369D1*
X598313D2*
X607289D1*
X656322D2*
X675669D1*
X685129D2*
X694399D1*
X714170D2*
X723871D1*
X733059D2*
X743281D1*
X762531D2*
X771849D1*
X783817D2*
X792805D1*
X817324D2*
X828284D1*
X861741D2*
X897513D1*
X424784Y1140267D2*
X430905D1*
X451438D2*
X460642D1*
X469657D2*
X479370D1*
X499445D2*
X508546D1*
X517630D2*
X559405D1*
X568393D2*
X577381D1*
X598301D2*
X607289D1*
X648539D2*
X674256D1*
X685098D2*
X694201D1*
X714646D2*
X723938D1*
X732992D2*
X742549D1*
X762741D2*
X771849D1*
X783817D2*
X792910D1*
X816991D2*
X827160D1*
X861657D2*
X897513D1*
X424779Y1137275D2*
X430938D1*
X451482D2*
X460667D1*
X469657D2*
X479402D1*
X499505D2*
X508551D1*
X517578D2*
X559300D1*
X568393D2*
X577498D1*
X598184D2*
X607289D1*
X642902D2*
X668942D1*
X685087D2*
X694234D1*
X714740D2*
X723963D1*
X732967D2*
X742188D1*
X762825D2*
X771849D1*
X783817D2*
X793303D1*
X816943D2*
X827551D1*
X861626D2*
X897513D1*
X424778Y1134283D2*
X431404D1*
X451046D2*
X460665D1*
X469657D2*
X480075D1*
X499309D2*
X508552D1*
X517659D2*
X558919D1*
X568393D2*
X577995D1*
X597687D2*
X607277D1*
X640483D2*
X660185D1*
X685083D2*
X694700D1*
X714327D2*
X723961D1*
X732958D2*
X742030D1*
X762856D2*
X771849D1*
X783817D2*
X794134D1*
X817275D2*
X828537D1*
X861626D2*
X897513D1*
X424777Y1131291D2*
X432597D1*
X449863D2*
X460551D1*
X469657D2*
X481248D1*
X498780D2*
X508541D1*
X518043D2*
X526505D1*
X546899D2*
X558191D1*
X568393D2*
X579199D1*
X596483D2*
X607172D1*
X638602D2*
X649177D1*
X685093D2*
X695893D1*
X713154D2*
X723847D1*
X732955D2*
X741966D1*
X762867D2*
X771849D1*
X783817D2*
X795371D1*
X818073D2*
X830131D1*
X861739D2*
X870585D1*
X892079D2*
X897513D1*
X424800Y1128299D2*
X434506D1*
X447958D2*
X460054D1*
X469657D2*
X482813D1*
X496450D2*
X508424D1*
X518874D2*
X529497D1*
X545849D2*
X557307D1*
X568393D2*
X581113D1*
X594569D2*
X606779D1*
X638106D2*
X649177D1*
X670121D2*
D3*
X685210D2*
X697802D1*
X711252D2*
X723350D1*
X732953D2*
X741942D1*
X762871D2*
X771849D1*
X783817D2*
X796961D1*
X819237D2*
X832280D1*
X849641D2*
X852633D1*
X862236D2*
X873577D1*
X890137D2*
X897490D1*
X425034Y1125307D2*
X436745D1*
X445721D2*
X458828D1*
X469657D2*
X484617D1*
X493593D2*
X507915D1*
X520150D2*
X532489D1*
X544457D2*
X556263D1*
X568393D2*
X583353D1*
X592329D2*
X605934D1*
X638787D2*
X649177D1*
X664137D2*
X673113D1*
X685731D2*
X700041D1*
X709017D2*
X722124D1*
X732953D2*
X741933D1*
X762872D2*
X771849D1*
X783817D2*
X798777D1*
X807753D2*
X810745D1*
X820706D2*
X834681D1*
X843657D2*
X855625D1*
X863462D2*
X876569D1*
X888537D2*
X897256D1*
X425595Y1122315D2*
X456732D1*
X469657D2*
X506946D1*
X522000D2*
X554922D1*
X568393D2*
X604555D1*
X639838D2*
X674562D1*
X686735D2*
X720028D1*
X732953D2*
X741930D1*
X762873D2*
X771849D1*
X783817D2*
X813094D1*
X822745D2*
X858617D1*
X865558D2*
X896695D1*
X428329Y1119323D2*
X453767D1*
X469657D2*
X504235D1*
X524719D2*
X551607D1*
X568393D2*
X602365D1*
X642677D2*
X672580D1*
X689968D2*
X717063D1*
X732953D2*
X741929D1*
X762873D2*
X771849D1*
X783817D2*
X815139D1*
X825804D2*
X854525D1*
X868523D2*
X893961D1*
X432237Y1116331D2*
X449970D1*
X469657D2*
X478633D1*
X484617D2*
X500664D1*
X528354D2*
X546956D1*
X568393D2*
X599135D1*
X646966D2*
X668570D1*
X694576D2*
X713266D1*
X732953D2*
X741929D1*
X762873D2*
X771849D1*
X783817D2*
X813205D1*
X829978D2*
X849433D1*
X872320D2*
X890053D1*
X436745Y1113339D2*
X445721D1*
X490601D2*
X496585D1*
X532489D2*
X541465D1*
X586345D2*
X595321D1*
X652169D2*
X664137D1*
X700041D2*
X709017D1*
X783817D2*
D3*
X804761D2*
X810745D1*
X834681D2*
X843657D1*
X876569D2*
X885545D1*
X544457Y1074443D2*
X550441D1*
X771849D2*
X777833D1*
X541465Y1071451D2*
X554918D1*
X767372D2*
X780825D1*
X538473Y1068459D2*
X559554D1*
X762736D2*
X783817D1*
X535481Y1065467D2*
X564005D1*
X758285D2*
X786809D1*
X532489Y1062475D2*
X568312D1*
X753978D2*
X789801D1*
X529497Y1059483D2*
X572919D1*
X604297D2*
X607289D1*
X715001D2*
X717993D1*
X749371D2*
X792793D1*
X526505Y1056491D2*
X578012D1*
X598313D2*
X608324D1*
X713966D2*
X723977D1*
X744278D2*
X795785D1*
X523513Y1053499D2*
X583353D1*
X592329D2*
X609319D1*
X712971D2*
X729961D1*
X738937D2*
X798777D1*
X520533Y1050507D2*
X610279D1*
X712011D2*
X801757D1*
X517669Y1047515D2*
X611394D1*
X710896D2*
X804621D1*
X515281Y1044523D2*
X612686D1*
X709604D2*
X807009D1*
X513468Y1041531D2*
X614084D1*
X708206D2*
X808822D1*
X513613Y1038539D2*
X615531D1*
X706759D2*
X808677D1*
X514458Y1035547D2*
X616915D1*
X705375D2*
X807832D1*
X515899Y1032555D2*
X618120D1*
X704170D2*
X806391D1*
X517698Y1029563D2*
X619183D1*
X703107D2*
X804592D1*
X519582Y1026571D2*
X620342D1*
X701948D2*
X802708D1*
X521626Y1023579D2*
X621641D1*
X700649D2*
X800664D1*
X523923Y1020587D2*
X622951D1*
X699339D2*
X798367D1*
X526220Y1017595D2*
X624124D1*
X698166D2*
X796070D1*
X528254Y1014603D2*
X625174D1*
X697116D2*
X794036D1*
X530042Y1011611D2*
X626329D1*
X695961D2*
X792248D1*
X531763Y1008619D2*
X627625D1*
X694665D2*
X790527D1*
X533574Y1005627D2*
X628936D1*
X693354D2*
X788716D1*
X535311Y1002635D2*
X630108D1*
X692182D2*
X786979D1*
X536719Y999643D2*
X631158D1*
X691132D2*
X785571D1*
X536494Y996651D2*
X632313D1*
X689977D2*
X785796D1*
X535696Y993659D2*
X633621D1*
X688669D2*
X786594D1*
X534523Y990667D2*
X635025D1*
X687265D2*
X787767D1*
X533169Y987675D2*
X636474D1*
X685816D2*
X789121D1*
X531819Y984683D2*
X637836D1*
X684454D2*
X790470D1*
X530627Y981691D2*
X638807D1*
X683483D2*
X791663D1*
X529580Y978699D2*
X639290D1*
X683000D2*
X792709D1*
X528516Y975707D2*
X638108D1*
X684182D2*
X793774D1*
X527459Y972715D2*
X635190D1*
X687100D2*
X794831D1*
X526122Y969723D2*
X631887D1*
X690403D2*
X796168D1*
X524190Y966731D2*
X628584D1*
X693706D2*
X798100D1*
X517958Y963739D2*
X625413D1*
X696877D2*
X804332D1*
X508843Y960747D2*
X622432D1*
X699858D2*
X813447D1*
X498043Y957755D2*
X619792D1*
X702498D2*
X824247D1*
X488421Y954763D2*
X617606D1*
X704684D2*
X833869D1*
X480817Y951771D2*
X615768D1*
X706522D2*
X841473D1*
X477665Y948779D2*
X614129D1*
X708161D2*
X844625D1*
X476575Y945787D2*
X612679D1*
X709611D2*
X845715D1*
X476020Y942795D2*
X611539D1*
X710751D2*
X846270D1*
X475783Y939803D2*
X610753D1*
X711537D2*
X846507D1*
X475692Y936811D2*
X610031D1*
X712259D2*
X846598D1*
X475658Y933819D2*
X609163D1*
X713127D2*
X846632D1*
X475647Y930827D2*
X608347D1*
X713943D2*
X846643D1*
X475643Y927835D2*
X607907D1*
X714383D2*
X846647D1*
X475642Y924843D2*
X608002D1*
X714288D2*
X846648D1*
X475641Y921851D2*
X608589D1*
X713701D2*
X846649D1*
X475641Y918859D2*
X609314D1*
X712976D2*
X846649D1*
X475641Y915867D2*
X609921D1*
X712369D2*
X846649D1*
X475641Y912875D2*
X610584D1*
X711706D2*
X846649D1*
X475688Y909883D2*
X611542D1*
X710748D2*
X846602D1*
X475828Y906891D2*
X612847D1*
X709443D2*
X846462D1*
X477277Y903899D2*
X614498D1*
X707792D2*
X845013D1*
X483006Y900907D2*
X616384D1*
X705906D2*
X839284D1*
X491711Y897915D2*
X618312D1*
X703978D2*
X830578D1*
X502353Y894923D2*
X620484D1*
X701806D2*
X819937D1*
X512325Y891931D2*
X623284D1*
X699006D2*
X809965D1*
X519482Y888939D2*
X626832D1*
X695458D2*
X802808D1*
X524489Y885947D2*
X631181D1*
X691109D2*
X797801D1*
X526696Y882955D2*
X636770D1*
X685520D2*
X795594D1*
X528526Y879963D2*
X643993D1*
X678297D2*
X793764D1*
X530063Y876971D2*
X652169D1*
X670121D2*
X792227D1*
X531336Y873979D2*
X790954D1*
X532511Y870987D2*
X789779D1*
X533953Y867995D2*
X788337D1*
X535588Y865003D2*
X786702D1*
X536927Y862011D2*
X785363D1*
X537633Y859019D2*
X784657D1*
X537858Y856027D2*
X784432D1*
X536706Y853035D2*
X785584D1*
X535123Y850043D2*
X787167D1*
X533362Y847051D2*
X788928D1*
X531459Y844059D2*
X790831D1*
X529457Y841067D2*
X792833D1*
X527491Y838075D2*
X794799D1*
X525417Y835083D2*
X796873D1*
X523108Y832091D2*
X799182D1*
X520796Y829099D2*
X801493D1*
X518667Y826107D2*
X803623D1*
X516615Y823115D2*
X805675D1*
X514675Y820123D2*
X807614D1*
X512999Y817131D2*
X809291D1*
X512527Y814139D2*
X809763D1*
X513600Y811147D2*
X808690D1*
X515465Y808155D2*
X806825D1*
X517911Y805163D2*
X804379D1*
X520667Y802171D2*
X582891D1*
X597725D2*
X724565D1*
X739399D2*
X801623D1*
X523566Y799179D2*
X579145D1*
X605447D2*
X716843D1*
X743145D2*
X798724D1*
X526524Y796187D2*
X575273D1*
X612305D2*
X709985D1*
X747017D2*
X795766D1*
X529503Y793195D2*
X571364D1*
X618159D2*
X704131D1*
X750926D2*
X792787D1*
X532491Y790203D2*
X567272D1*
X622641D2*
X699649D1*
X755018D2*
X789799D1*
X535482Y787211D2*
X563003D1*
X626020D2*
X696270D1*
X759287D2*
X786808D1*
X538473Y784219D2*
X558692D1*
X627168D2*
X695122D1*
X763598D2*
X783817D1*
X541465Y781227D2*
X554496D1*
X627795D2*
X694495D1*
X767794D2*
X780825D1*
X544457Y778235D2*
X550441D1*
X628175D2*
X694115D1*
X771849D2*
X777833D1*
X628667Y775243D2*
X693623D1*
X629425Y772251D2*
X692865D1*
X630207Y769259D2*
X692083D1*
X630746Y766267D2*
X691544D1*
X631130Y763275D2*
X691160D1*
X631639Y760283D2*
X690651D1*
X632408Y757291D2*
X689882D1*
X633196Y754299D2*
X689094D1*
X633727Y751307D2*
X688563D1*
X634023Y748315D2*
X688267D1*
X634217Y745323D2*
X688073D1*
X651520Y1583754D2*
X654512D1*
X684432D2*
X687424D1*
X649665Y1580762D2*
X653478D1*
X685467D2*
X689280D1*
X647959Y1577770D2*
X652473D1*
X686472D2*
X690986D1*
X646368Y1574778D2*
X651441D1*
X687503D2*
X692577D1*
X644958Y1571786D2*
X650110D1*
X688835D2*
X693987D1*
X643748Y1568794D2*
X648528D1*
X663488D2*
X675456D1*
X690416D2*
X695197D1*
X643773Y1565802D2*
X654512D1*
X660496D2*
X678448D1*
X684432D2*
X695171D1*
X645716Y1562810D2*
X693229D1*
X648288Y1559818D2*
X690657D1*
X650777Y1556826D2*
X688168D1*
X652591Y1553834D2*
X686353D1*
X606640Y1550842D2*
X609632D1*
X653814D2*
X685131D1*
X729312D2*
X732304D1*
X607114Y1547850D2*
X611129D1*
X653728D2*
X685216D1*
X727815D2*
X731830D1*
X607973Y1544858D2*
X612890D1*
X653178D2*
X685767D1*
X726055D2*
X730972D1*
X609234Y1541866D2*
X614835D1*
X652485D2*
X686460D1*
X724109D2*
X729710D1*
X610868Y1538874D2*
X617249D1*
X652004D2*
X686941D1*
X721696D2*
X728077D1*
X612747Y1535882D2*
X620369D1*
X651854D2*
X687091D1*
X718576D2*
X726198D1*
X614661Y1532890D2*
X623938D1*
X652217D2*
X686727D1*
X715007D2*
X724284D1*
X616739Y1529898D2*
X627812D1*
X653252D2*
X685692D1*
X711132D2*
X722206D1*
X619262Y1526906D2*
X632240D1*
X654603D2*
X684342D1*
X706705D2*
X719682D1*
X622439Y1523914D2*
X637317D1*
X655782D2*
X683163D1*
X701628D2*
X716505D1*
X626394Y1520922D2*
X642835D1*
X655354D2*
X683590D1*
X696109D2*
X712551D1*
X630814Y1517930D2*
X648528D1*
X654512D2*
X684432D1*
X690416D2*
X708131D1*
X635085Y1514938D2*
X703859D1*
X638974Y1511946D2*
X699971D1*
X642751Y1508954D2*
X696193D1*
X646664Y1505962D2*
X692281D1*
X650621Y1502970D2*
X688324D1*
X630576Y1499978D2*
X645536D1*
X654512D2*
X684432D1*
X693408D2*
X708368D1*
X617393Y1496986D2*
X721552D1*
X603648Y1493994D2*
X735296D1*
X606453Y1491002D2*
X732491D1*
X609632Y1488010D2*
X612624D1*
X643886D2*
X695059D1*
X723328D2*
X729312D1*
X649522Y1485018D2*
X689423D1*
X653797Y1482026D2*
X685148D1*
X655827Y1479034D2*
X683118D1*
X657504Y1476042D2*
X681440D1*
X651288Y1473050D2*
X687657D1*
X645835Y1470058D2*
X693109D1*
X641211Y1467066D2*
X697734D1*
X637414Y1464074D2*
X701531D1*
X634369Y1461082D2*
X704576D1*
X631907Y1458090D2*
X707037D1*
X629609Y1455098D2*
X639552D1*
X648528D2*
X690416D1*
X699392D2*
X709336D1*
X627123Y1452106D2*
X636560D1*
X648528D2*
X690416D1*
X702384D2*
X711822D1*
X624503Y1449114D2*
X633568D1*
X648528D2*
X690416D1*
X705376D2*
X714441D1*
X622028Y1446122D2*
X630576D1*
X648540D2*
X690405D1*
X708368D2*
X716917D1*
X619921Y1443130D2*
X627596D1*
X648645D2*
X690300D1*
X711349D2*
X719024D1*
X618214Y1440138D2*
X624721D1*
X649027D2*
X689918D1*
X714224D2*
X720731D1*
X616966Y1437146D2*
X622227D1*
X649743D2*
X689202D1*
X716718D2*
X721979D1*
X616236Y1434154D2*
X620450D1*
X650522D2*
X688423D1*
X718495D2*
X722709D1*
X615875Y1431162D2*
X619440D1*
X651149D2*
X687796D1*
X719505D2*
X723070D1*
X615717Y1428170D2*
X618952D1*
X651819D2*
X687125D1*
X719993D2*
X723228D1*
X615654Y1425178D2*
X618741D1*
X652780D2*
X686165D1*
X720204D2*
X723291D1*
X615629Y1422186D2*
X618657D1*
X654109D2*
X684835D1*
X720288D2*
X723315D1*
X615621Y1419194D2*
X618625D1*
X655980D2*
X682965D1*
X720319D2*
X723324D1*
X615618Y1416202D2*
X618614D1*
X658707D2*
X680238D1*
X720331D2*
X723327D1*
X615617Y1413210D2*
X618610D1*
X662345D2*
X676600D1*
X720334D2*
X723328D1*
X615617Y1410218D2*
X618609D1*
X666480D2*
X672464D1*
X720336D2*
X723328D1*
X615616Y1407226D2*
X618608D1*
X720336D2*
X723328D1*
X659156Y2051864D2*
X662148D1*
X602308Y2048872D2*
X608292D1*
X659156D2*
X663160D1*
X605056Y2045880D2*
X613128D1*
X659145D2*
X663945D1*
X608451Y2042888D2*
X617721D1*
X659040D2*
X664371D1*
X612187Y2039896D2*
X621911D1*
X658658D2*
X663767D1*
X716004D2*
X745924D1*
X615666Y2036904D2*
X625515D1*
X657930D2*
X663087D1*
X711620D2*
X745924D1*
X618517Y2033912D2*
X628470D1*
X657058D2*
X662608D1*
X707663D2*
X730502D1*
X621032Y2030920D2*
X630797D1*
X656155D2*
X662349D1*
X703855D2*
X719776D1*
X623534Y2027928D2*
X632703D1*
X655160D2*
X662229D1*
X699954D2*
X712871D1*
X625912Y2024936D2*
X634481D1*
X654266D2*
X662179D1*
X696128D2*
X708143D1*
X627977Y2021944D2*
X636437D1*
X653692D2*
X662171D1*
X692690D2*
X704460D1*
X629764Y2018952D2*
X638771D1*
X653406D2*
X662269D1*
X689791D2*
X701316D1*
X631395Y2015960D2*
X641329D1*
X653377D2*
X662648D1*
X687397D2*
X698690D1*
X584356Y2012968D2*
X590340D1*
X632952D2*
X643791D1*
X653705D2*
X663387D1*
X685235D2*
X696687D1*
X579082Y2009976D2*
X591940D1*
X634549D2*
X645981D1*
X654426D2*
X664382D1*
X683242D2*
X695060D1*
X574795Y2006984D2*
X594007D1*
X636303D2*
X648060D1*
X655309D2*
X665831D1*
X681724D2*
X709870D1*
X571755Y2003992D2*
X581364D1*
X587898D2*
X596324D1*
X611284D2*
X623252D1*
X638212D2*
X650180D1*
X656164D2*
X668169D1*
X680775D2*
X721420D1*
X569396Y2001000D2*
X572388D1*
X588948D2*
X626244D1*
X635220D2*
X671124D1*
X680100D2*
X729392D1*
X590340Y1998008D2*
X734551D1*
X587936Y1995016D2*
X737852D1*
X586187Y1992024D2*
X740035D1*
X585196Y1989032D2*
X741670D1*
X584827Y1986040D2*
X741845D1*
X584845Y1983048D2*
X741338D1*
X586168Y1980056D2*
X740212D1*
X588099Y1977064D2*
X738398D1*
X590340Y1974072D2*
X735963D1*
X569396Y1971080D2*
X572388D1*
X588751D2*
X626244D1*
X635220D2*
X672289D1*
X680226D2*
X730364D1*
X571594Y1968088D2*
X581364D1*
X587348D2*
X596447D1*
X611284D2*
X623252D1*
X638212D2*
X650643D1*
X655702D2*
X668684D1*
X680715D2*
X721653D1*
X574956Y1965096D2*
X593920D1*
X636357D2*
X648393D1*
X654960D2*
X666299D1*
X681825D2*
X709325D1*
X579412Y1962104D2*
X591951D1*
X634651D2*
X646175D1*
X654186D2*
X664610D1*
X683426D2*
X695060D1*
X584356Y1959112D2*
X590340D1*
X633048D2*
X643719D1*
X653662D2*
X663423D1*
X685213D2*
X696671D1*
X631498Y1956120D2*
X641110D1*
X653395D2*
X662733D1*
X687239D2*
X698804D1*
X629877Y1953128D2*
X638638D1*
X653373D2*
X662393D1*
X689730D2*
X701361D1*
X627995Y1950136D2*
X636521D1*
X653702D2*
X662244D1*
X692794D2*
X704160D1*
X625778Y1947144D2*
X634697D1*
X654410D2*
X662184D1*
X696365D2*
X707179D1*
X623493Y1944152D2*
X632951D1*
X655275D2*
X662161D1*
X700079D2*
X711167D1*
X621262Y1941160D2*
X630995D1*
X656176D2*
X662164D1*
X703686D2*
X718310D1*
X618705Y1938168D2*
X628547D1*
X657169D2*
X662267D1*
X707410D2*
X730504D1*
X615448Y1935176D2*
X625492D1*
X658063D2*
X662635D1*
X711554D2*
X745924D1*
X611705Y1932184D2*
X621816D1*
X658637D2*
X663246D1*
X716004D2*
X745924D1*
X608039Y1929192D2*
X617647D1*
X658934D2*
X663630D1*
X604941Y1926200D2*
X613088D1*
X659069D2*
X663412D1*
X602308Y1923208D2*
X608292D1*
X659126D2*
X662815D1*
X659156Y1920216D2*
X662148D1*
X775485Y705013D2*
X778477D1*
X820365D2*
X823357D1*
X777209Y702021D2*
X782491D1*
X820353D2*
X823357D1*
X779714Y699029D2*
X786374D1*
X820248D2*
X823357D1*
X782883Y696037D2*
X789921D1*
X819866D2*
X823357D1*
X865245D2*
X886189D1*
X786068Y693045D2*
X793101D1*
X819138D2*
X823357D1*
X860872D2*
X886189D1*
X788776Y690053D2*
X795844D1*
X818266D2*
X823357D1*
X857020D2*
X874910D1*
X791143Y687061D2*
X798174D1*
X817363D2*
X823357D1*
X853593D2*
X866762D1*
X793337Y684069D2*
X800408D1*
X816380D2*
X823357D1*
X850409D2*
X861161D1*
X795278Y681077D2*
X802780D1*
X815592D2*
X823357D1*
X847350D2*
X857023D1*
X797002Y678085D2*
X805104D1*
X815157D2*
X823357D1*
X844434D2*
X853677D1*
X798593Y675093D2*
X807139D1*
X815758D2*
X823380D1*
X841824D2*
X850970D1*
X760525Y672101D2*
X766509D1*
X800025D2*
X808842D1*
X816443D2*
X823608D1*
X839659D2*
X848935D1*
X756691Y669109D2*
X772301D1*
X801156D2*
X810223D1*
X816965D2*
X824151D1*
X837903D2*
X847293D1*
X753824Y666117D2*
X781625D1*
X801885D2*
X811389D1*
X817373D2*
X826483D1*
X836501D2*
X860964D1*
X751549Y663125D2*
X754541D1*
X766035D2*
X793437D1*
X802413D2*
X829341D1*
X835325D2*
X870745D1*
X765188Y660133D2*
X877854D1*
X764043Y657141D2*
X880946D1*
X762908Y654149D2*
X882128D1*
X761971Y651157D2*
X882739D1*
X762357Y648165D2*
X882896D1*
X763232Y645173D2*
X882754D1*
X764363Y642181D2*
X881579D1*
X765489Y639189D2*
X878885D1*
X751549Y636197D2*
X757533D1*
X766509D2*
X793437D1*
X802299D2*
X830517D1*
X835799D2*
X871734D1*
X753699Y633205D2*
X769501D1*
X801904D2*
X810915D1*
X817259D2*
X826471D1*
X836657D2*
X860743D1*
X756816Y630213D2*
X768098D1*
X801081D2*
X810056D1*
X816875D2*
X824877D1*
X837930D2*
X847293D1*
X760525Y627221D2*
X766509D1*
X799921D2*
X808783D1*
X816170D2*
X824007D1*
X839669D2*
X848904D1*
X798566Y624229D2*
X807056D1*
X815508D2*
X823612D1*
X841929D2*
X851036D1*
X797035Y621237D2*
X804901D1*
X815367D2*
X823451D1*
X844560D2*
X853593D1*
X795276Y618245D2*
X802652D1*
X815818D2*
X823390D1*
X847394D2*
X856463D1*
X793334Y615253D2*
X800535D1*
X816563D2*
X823368D1*
X850334D2*
X860060D1*
X791295Y612261D2*
X798373D1*
X817414D2*
X823360D1*
X853415D2*
X865797D1*
X788839Y609269D2*
X795916D1*
X818388D2*
X823358D1*
X856861D2*
X874915D1*
X785725Y606277D2*
X793104D1*
X819274D2*
X823357D1*
X860873D2*
X886189D1*
X782381Y603285D2*
X789859D1*
X819846D2*
X823357D1*
X865245D2*
X886189D1*
X779463Y600293D2*
X786179D1*
X820144D2*
X823357D1*
X777257Y597301D2*
X782317D1*
X820283D2*
X823357D1*
X775485Y594309D2*
X778477D1*
X820365D2*
X823357D1*
X490103Y487166D2*
X493095D1*
X523015D2*
X526007D1*
X488248Y484174D2*
X492061D1*
X524050D2*
X527862D1*
X486542Y481182D2*
X491056D1*
X525054D2*
X529569D1*
X484951Y478190D2*
X490024D1*
X526086D2*
X531159D1*
X483541Y475198D2*
X488692D1*
X527418D2*
X532569D1*
X482330Y472206D2*
X487111D1*
X502071D2*
X514039D1*
X528999D2*
X533780D1*
X482356Y469214D2*
X493095D1*
X499079D2*
X517031D1*
X523015D2*
X533754D1*
X484298Y466222D2*
X531812D1*
X486871Y463230D2*
X529240D1*
X489359Y460238D2*
X526751D1*
X491174Y457246D2*
X524936D1*
X445223Y454254D2*
X448215D1*
X492397D2*
X523714D1*
X567895D2*
X570887D1*
X445697Y451262D2*
X449712D1*
X492311D2*
X523799D1*
X566398D2*
X570413D1*
X446556Y448270D2*
X451473D1*
X491761D2*
X524350D1*
X564637D2*
X569554D1*
X447817Y445278D2*
X453418D1*
X491067D2*
X525043D1*
X562692D2*
X568293D1*
X449451Y442286D2*
X455831D1*
X490586D2*
X525524D1*
X560279D2*
X566660D1*
X451329Y439294D2*
X458952D1*
X490437D2*
X525673D1*
X557159D2*
X564781D1*
X453243Y436302D2*
X462521D1*
X490800D2*
X525310D1*
X553590D2*
X562867D1*
X455322Y433310D2*
X466395D1*
X491835D2*
X524275D1*
X549715D2*
X560788D1*
X457845Y430318D2*
X470823D1*
X493186D2*
X522924D1*
X545287D2*
X558265D1*
X461022Y427326D2*
X475899D1*
X494365D2*
X521746D1*
X540211D2*
X555088D1*
X464976Y424334D2*
X481418D1*
X493937D2*
X522173D1*
X534692D2*
X551134D1*
X469397Y421342D2*
X487111D1*
X493095D2*
X523015D1*
X528999D2*
X546713D1*
X473668Y418350D2*
X542442D1*
X477557Y415358D2*
X538553D1*
X481334Y412366D2*
X534776D1*
X485247Y409374D2*
X530864D1*
X489204Y406382D2*
X526906D1*
X469159Y403390D2*
X484119D1*
X493095D2*
X523015D1*
X531991D2*
X546951D1*
X455976Y400398D2*
X560135D1*
X442231Y397406D2*
X573879D1*
X445036Y394414D2*
X571074D1*
X448215Y391422D2*
X451207D1*
X482469D2*
X533641D1*
X561911D2*
X567895D1*
X488105Y388430D2*
X528005D1*
X492379Y385438D2*
X523731D1*
X494410Y382446D2*
X521701D1*
X496087Y379454D2*
X520023D1*
X489870Y376462D2*
X526240D1*
X484418Y373470D2*
X531692D1*
X479793Y370478D2*
X536317D1*
X475997Y367486D2*
X540113D1*
X472952Y364494D2*
X543158D1*
X470490Y361502D2*
X545620D1*
X468191Y358510D2*
X478135D1*
X487111D2*
X528999D1*
X537975D2*
X547919D1*
X465705Y355518D2*
X475143D1*
X487111D2*
X528999D1*
X540967D2*
X550405D1*
X463086Y352526D2*
X472151D1*
X487111D2*
X528999D1*
X543959D2*
X553024D1*
X460611Y349534D2*
X469159D1*
X487123D2*
X528987D1*
X546951D2*
X555499D1*
X458504Y346542D2*
X466179D1*
X487228D2*
X528882D1*
X549931D2*
X557607D1*
X456797Y343550D2*
X463304D1*
X487609D2*
X528501D1*
X552806D2*
X559313D1*
X455548Y340558D2*
X460810D1*
X488326D2*
X527784D1*
X555300D2*
X560562D1*
X454818Y337566D2*
X459033D1*
X489105D2*
X527005D1*
X557078D2*
X561292D1*
X454458Y334574D2*
X458022D1*
X489732D2*
X526378D1*
X558088D2*
X561652D1*
X454300Y331582D2*
X457534D1*
X490402D2*
X525708D1*
X558576D2*
X561810D1*
X454236Y328590D2*
X457323D1*
X491362D2*
X524748D1*
X558787D2*
X561874D1*
X454212Y325598D2*
X457239D1*
X492692D2*
X523418D1*
X558871D2*
X561898D1*
X454204Y322606D2*
X457208D1*
X494563D2*
X521548D1*
X558902D2*
X561907D1*
X454201Y319614D2*
X457197D1*
X497289D2*
X518821D1*
X558913D2*
X561910D1*
X454200Y316622D2*
X457193D1*
X500927D2*
X515183D1*
X558917D2*
X561911D1*
X454199Y313630D2*
X457192D1*
X505063D2*
X511047D1*
X558918D2*
X561911D1*
X454199Y310638D2*
X457191D1*
X558919D2*
X561911D1*
X399629Y1434279D2*
X402621D1*
X398720Y1431287D2*
X402621D1*
X453485D2*
X459469D1*
X397969Y1428295D2*
X402633D1*
X448650D2*
X456721D1*
X398302Y1425303D2*
X402738D1*
X444056D2*
X453326D1*
X315853Y1422311D2*
X345773D1*
X398822D2*
X403119D1*
X439867D2*
X449590D1*
X315853Y1419319D2*
X350158D1*
X399223D2*
X403848D1*
X436263D2*
X446112D1*
X331275Y1416327D2*
X354114D1*
X399449D2*
X404720D1*
X433308D2*
X443261D1*
X342001Y1413335D2*
X357923D1*
X399556D2*
X405623D1*
X430981D2*
X440745D1*
X348907Y1410343D2*
X361824D1*
X399602D2*
X406617D1*
X429074D2*
X438244D1*
X353634Y1407351D2*
X365650D1*
X399619D2*
X407511D1*
X427297D2*
X435866D1*
X357317Y1404359D2*
X369088D1*
X399614D2*
X408085D1*
X425341D2*
X433801D1*
X360462Y1401367D2*
X371987D1*
X399511D2*
X408371D1*
X423006D2*
X432014D1*
X363087Y1398375D2*
X374381D1*
X399131D2*
X408400D1*
X420448D2*
X430383D1*
X365090Y1395383D2*
X376543D1*
X398391D2*
X408072D1*
X417986D2*
X428825D1*
X471437D2*
X477421D1*
X366717Y1392391D2*
X378536D1*
X397396D2*
X407351D1*
X415796D2*
X427228D1*
X469837D2*
X482695D1*
X351907Y1389399D2*
X380053D1*
X395947D2*
X406469D1*
X413718D2*
X425475D1*
X467770D2*
X486983D1*
X340358Y1386407D2*
X381002D1*
X393608D2*
X405613D1*
X411597D2*
X423565D1*
X438525D2*
X450493D1*
X465453D2*
X473879D1*
X480413D2*
X490022D1*
X332386Y1383415D2*
X381677D1*
X390653D2*
X426557D1*
X435533D2*
X472829D1*
X489389D2*
X492381D1*
X327226Y1380423D2*
X471437D1*
X323925Y1377431D2*
X473841D1*
X321743Y1374439D2*
X475591D1*
X320107Y1371447D2*
X476581D1*
X319933Y1368455D2*
X476950D1*
X320440Y1365463D2*
X476932D1*
X321565Y1362471D2*
X475610D1*
X323379Y1359479D2*
X473678D1*
X325814Y1356487D2*
X471437D1*
X331413Y1353495D2*
X381551D1*
X389489D2*
X426557D1*
X435533D2*
X473027D1*
X489389D2*
X492381D1*
X340124Y1350503D2*
X381063D1*
X393094D2*
X406075D1*
X411135D2*
X423565D1*
X438525D2*
X450493D1*
X465330D2*
X474429D1*
X480413D2*
X490183D1*
X352452Y1347511D2*
X379953D1*
X395479D2*
X406817D1*
X413385D2*
X425420D1*
X467858D2*
X486822D1*
X366717Y1344519D2*
X378352D1*
X397167D2*
X407592D1*
X415602D2*
X427127D1*
X469826D2*
X482366D1*
X365106Y1341527D2*
X376565D1*
X398355D2*
X408116D1*
X418059D2*
X428729D1*
X471437D2*
X477421D1*
X362974Y1338535D2*
X374539D1*
X399044D2*
X408382D1*
X420667D2*
X430279D1*
X360416Y1335543D2*
X372048D1*
X399384D2*
X408404D1*
X423139D2*
X431901D1*
X357617Y1332551D2*
X368983D1*
X399534D2*
X408075D1*
X425257D2*
X433782D1*
X354598Y1329559D2*
X365413D1*
X399594D2*
X407367D1*
X427080D2*
X436000D1*
X350610Y1326567D2*
X361698D1*
X399605D2*
X406502D1*
X428826D2*
X438285D1*
X343467Y1323575D2*
X358092D1*
X399508D2*
X405602D1*
X430783D2*
X440516D1*
X331274Y1320583D2*
X354367D1*
X399130D2*
X404609D1*
X433231D2*
X443073D1*
X315853Y1317591D2*
X350223D1*
X398426D2*
X403715D1*
X436285D2*
X446330D1*
X315853Y1314599D2*
X345773D1*
X397764D2*
X403141D1*
X439961D2*
X450073D1*
X397626Y1311607D2*
X402843D1*
X444130D2*
X453738D1*
X398089Y1308615D2*
X402709D1*
X448689D2*
X456836D1*
X398848Y1305623D2*
X402652D1*
X453485D2*
X459469D1*
X399629Y1302631D2*
X402621D1*
X469657Y1239003D2*
Y1236011D1*
Y1233019D1*
Y1230027D1*
Y1227035D1*
Y1224043D1*
Y1221051D1*
Y1218059D1*
Y1215067D1*
Y1212075D1*
Y1209083D1*
Y1206091D1*
Y1203099D1*
Y1200107D1*
Y1197115D1*
Y1194123D1*
Y1191131D1*
Y1188139D1*
Y1185147D1*
Y1182155D1*
Y1179163D1*
Y1176171D1*
Y1173179D1*
Y1170187D1*
Y1167195D1*
Y1164203D1*
Y1161211D1*
Y1158219D1*
Y1155227D1*
Y1152235D1*
Y1149243D1*
Y1146251D1*
Y1143259D1*
Y1140267D1*
Y1137275D1*
Y1134283D1*
Y1131291D1*
Y1128299D1*
Y1125307D1*
Y1122315D1*
Y1119323D1*
Y1116331D1*
X478633Y1239003D2*
Y1236011D1*
Y1233019D1*
Y1230027D1*
Y1227035D1*
Y1224043D1*
X478645Y1221051D1*
X478762Y1218059D1*
X479259Y1215067D1*
X480463Y1212075D1*
X482377Y1209083D1*
X484617Y1206091D1*
X499577Y1239003D2*
Y1236011D1*
Y1233019D1*
Y1230027D1*
Y1227035D1*
Y1224043D1*
Y1221051D1*
X499565Y1218059D1*
X499451Y1215067D1*
X498989Y1212075D1*
X497966Y1209083D1*
X496585Y1206091D1*
X508553Y1239003D2*
Y1236011D1*
Y1233019D1*
Y1230027D1*
Y1227035D1*
Y1224043D1*
Y1221051D1*
Y1218059D1*
Y1215067D1*
Y1212075D1*
X508541Y1209083D1*
X508424Y1206091D1*
X507927Y1203099D1*
X506723Y1200107D1*
X504809Y1197115D1*
X502569Y1194123D1*
X520521Y1239003D2*
X519498Y1236011D1*
X518619Y1233019D1*
X518157Y1230027D1*
X518257Y1227035D1*
X519040Y1224043D1*
X520342Y1221051D1*
X524470Y1218059D1*
X534971Y1215067D1*
X547449Y1212075D1*
Y1209083D1*
Y1206091D1*
X556425Y1239003D2*
Y1236011D1*
Y1233019D1*
Y1230027D1*
Y1227035D1*
Y1224043D1*
Y1221051D1*
Y1218059D1*
Y1215067D1*
Y1212075D1*
X556413Y1209083D1*
X556296Y1206091D1*
X555799Y1203099D1*
X554595Y1200107D1*
X552681Y1197115D1*
X550441Y1194123D1*
X568393Y1239003D2*
Y1236011D1*
Y1233019D1*
Y1230027D1*
Y1227035D1*
Y1224043D1*
Y1221051D1*
Y1218059D1*
Y1215067D1*
Y1212075D1*
Y1209083D1*
Y1206091D1*
Y1203099D1*
Y1200107D1*
Y1197115D1*
Y1194123D1*
X577369Y1239003D2*
Y1236011D1*
Y1233019D1*
Y1230027D1*
Y1227035D1*
Y1224043D1*
X577381Y1221051D1*
X577498Y1218059D1*
X577778Y1215067D1*
X579116Y1212075D1*
X582931Y1209083D1*
X588011Y1206091D1*
X593056Y1203099D1*
X596829Y1200107D1*
X599373Y1197115D1*
X601305Y1194123D1*
X607289Y1239003D2*
X606266Y1236011D1*
X605376Y1233019D1*
X604808Y1230027D1*
X604515Y1227035D1*
X604383Y1224043D1*
X604329Y1221051D1*
X604308Y1218059D1*
X604301Y1215067D1*
X604310Y1212075D1*
X604414Y1209083D1*
X604807Y1206091D1*
X605638Y1203099D1*
X606875Y1200107D1*
X608465Y1197115D1*
X610281Y1194123D1*
X643193Y1239003D2*
Y1236011D1*
Y1233019D1*
Y1230027D1*
Y1227035D1*
Y1224043D1*
Y1221051D1*
Y1218059D1*
Y1215067D1*
Y1212075D1*
Y1209083D1*
Y1206091D1*
Y1203099D1*
Y1200107D1*
Y1197115D1*
Y1194123D1*
Y1191131D1*
Y1188139D1*
Y1185147D1*
Y1182155D1*
Y1179163D1*
Y1176171D1*
Y1173179D1*
X664137Y1239003D2*
X662642Y1236011D1*
X661399Y1233019D1*
X660247Y1230027D1*
X659275Y1227035D1*
X658570Y1224043D1*
X657870Y1221051D1*
X656911Y1218059D1*
X655706Y1215067D1*
X654446Y1212075D1*
X653382Y1209083D1*
X652626Y1206091D1*
X651911Y1203099D1*
X651022Y1200107D1*
X650070Y1197115D1*
X649177Y1194123D1*
X676105Y1239003D2*
X676567Y1236011D1*
X677309Y1233019D1*
X678096Y1230027D1*
X678734Y1227035D1*
X679475Y1224043D1*
X680630Y1221051D1*
X682089Y1218059D1*
X694057Y1239003D2*
X693022Y1236011D1*
X692027Y1233019D1*
X691078Y1230027D1*
X690068Y1227035D1*
X689161Y1224043D1*
X688538Y1221051D1*
X688073Y1218059D1*
X706025Y1239003D2*
X706487Y1236011D1*
X707241Y1233019D1*
X708121Y1230027D1*
X709026Y1227035D1*
X710032Y1224043D1*
X711032Y1221051D1*
X711987Y1218059D1*
X713013Y1215067D1*
X714020Y1212075D1*
X714978Y1209083D1*
X715993Y1206091D1*
X716895Y1203099D1*
X717474Y1200107D1*
X717789Y1197115D1*
X717993Y1194123D1*
X723977Y1239003D2*
X722954Y1236011D1*
X722064Y1233019D1*
X721508Y1230027D1*
X721332Y1227035D1*
X721448Y1224043D1*
X722891Y1221051D1*
X728721Y1218059D1*
X738513Y1215067D1*
X750905Y1212075D1*
Y1209083D1*
Y1206091D1*
X759881Y1239003D2*
Y1236011D1*
Y1233019D1*
Y1230027D1*
Y1227035D1*
Y1224043D1*
Y1221051D1*
Y1218059D1*
Y1215067D1*
Y1212075D1*
X759869Y1209083D1*
X759752Y1206091D1*
X759255Y1203099D1*
X758051Y1200107D1*
X756137Y1197115D1*
X753897Y1194123D1*
X771849Y1239003D2*
Y1236011D1*
Y1233019D1*
Y1230027D1*
Y1227035D1*
Y1224043D1*
Y1221051D1*
Y1218059D1*
Y1215067D1*
Y1212075D1*
Y1209083D1*
Y1206091D1*
Y1203099D1*
Y1200107D1*
Y1197115D1*
Y1194123D1*
X780825Y1239003D2*
Y1236011D1*
Y1233019D1*
Y1230027D1*
Y1227035D1*
Y1224043D1*
X780837Y1221051D1*
X780942Y1218059D1*
X781323Y1215067D1*
X782040Y1212075D1*
X782815Y1209083D1*
X783382Y1206091D1*
X783817Y1203099D1*
X801769D1*
X802819Y1200107D1*
X803836Y1197115D1*
X804761Y1194123D1*
X813737Y1239003D2*
X811893Y1236011D1*
X810292Y1233019D1*
X809083Y1230027D1*
X808366Y1227035D1*
X808010Y1224043D1*
X807853Y1221051D1*
X807790Y1218059D1*
X807778Y1215067D1*
X807874Y1212075D1*
X808264Y1209083D1*
X809097Y1206091D1*
X810361Y1203099D1*
X812089Y1200107D1*
X814296Y1197115D1*
X816729Y1194123D1*
X843657Y1239003D2*
X846649Y1236011D1*
X843657Y1233019D1*
X840665Y1230027D1*
X526505Y1233019D2*
X527055Y1230027D1*
X528105Y1227035D1*
X529497Y1224043D1*
X547449Y1233019D2*
Y1230027D1*
Y1227035D1*
Y1224043D1*
X619257Y1233019D2*
X616853Y1230027D1*
X615103Y1227035D1*
X614101Y1224043D1*
X613615Y1221051D1*
X613417Y1218059D1*
X613447Y1215067D1*
X613878Y1212075D1*
X614889Y1209083D1*
X616265Y1206091D1*
X631225Y1233019D2*
X631687Y1230027D1*
X632429Y1227035D1*
X633204Y1224043D1*
X633716Y1221051D1*
X633889Y1218059D1*
X633633Y1215067D1*
X632943Y1212075D1*
X632074Y1209083D1*
X631225Y1206091D1*
X729961Y1233019D2*
X730511Y1230027D1*
X731561Y1227035D1*
X732953Y1224043D1*
X750905Y1233019D2*
Y1230027D1*
Y1227035D1*
Y1224043D1*
X822713Y1233019D2*
X820308Y1230027D1*
X818548Y1227035D1*
X817477Y1224043D1*
X816729Y1221051D1*
X846649D1*
Y1218059D1*
Y1215067D1*
X846637Y1212075D1*
X846520Y1209083D1*
X846022Y1206091D1*
X844808Y1203099D1*
X842829Y1200107D1*
X840348Y1197115D1*
X837673Y1194123D1*
X834681Y1233019D2*
X837673Y1230027D1*
X697049Y1224043D2*
X696587Y1221051D1*
X695833Y1218059D1*
X694953Y1215067D1*
X694048Y1212075D1*
X693042Y1209083D1*
X692042Y1206091D1*
X691084Y1203099D1*
X690044Y1200107D1*
X689014Y1197115D1*
X688073Y1194123D1*
X703033Y1224043D2*
X703045Y1221051D1*
X703150Y1218059D1*
X703531Y1215067D1*
X704248Y1212075D1*
X705027Y1209083D1*
X705654Y1206091D1*
X706315Y1203099D1*
X707183Y1200107D1*
X708128Y1197115D1*
X709017Y1194123D1*
X670121Y1221051D2*
X667717Y1218059D1*
X665955Y1215067D1*
X664848Y1212075D1*
X663981Y1209083D1*
X663054Y1206091D1*
X662203Y1203099D1*
X661648Y1200107D1*
X661343Y1197115D1*
X661145Y1194123D1*
X673113Y1221051D2*
X673227Y1218059D1*
X673610Y1215067D1*
X674339Y1212075D1*
X675212Y1209083D1*
X676115Y1206091D1*
X677109Y1203099D1*
X678011Y1200107D1*
X678633Y1197115D1*
X679097Y1194123D1*
X816729Y1215067D2*
X817279Y1212075D1*
X818329Y1209083D1*
X819721Y1206091D1*
X837673Y1215067D2*
X837123Y1212075D1*
X836073Y1209083D1*
X834681Y1206091D1*
X526505D2*
X524156Y1203099D1*
X522110Y1200107D1*
X524045Y1197115D1*
X526505Y1194123D1*
X529497Y1206091D2*
X729961D2*
X727679Y1203099D1*
X725929Y1200107D1*
X726222Y1197115D1*
X726969Y1194123D1*
X478633Y1197115D2*
Y1194123D1*
Y1191131D1*
Y1188139D1*
Y1185147D1*
Y1182155D1*
Y1179163D1*
Y1176171D1*
Y1173179D1*
Y1170187D1*
Y1167195D1*
Y1164203D1*
X481625Y1197115D2*
X484617Y1194123D1*
X580361Y1197115D2*
X577369Y1194123D1*
X580361Y1197115D2*
X583353Y1194123D1*
X631225Y1197115D2*
X628233Y1194123D1*
X634217Y1197115D2*
Y1194123D1*
Y1191131D1*
Y1188139D1*
Y1185147D1*
Y1182155D1*
Y1179163D1*
Y1176171D1*
Y1173179D1*
X783817Y1197115D2*
X780825Y1194123D1*
X783817Y1197115D2*
X786809Y1194123D1*
X433753Y1164203D2*
X429968Y1161211D1*
X426922Y1158219D1*
X425813Y1155227D1*
X425216Y1152235D1*
X424948Y1149243D1*
X424840Y1146251D1*
X424799Y1143259D1*
X424784Y1140267D1*
X424779Y1137275D1*
X424778Y1134283D1*
X424777Y1131291D1*
X424800Y1128299D1*
X425034Y1125307D1*
X425595Y1122315D1*
X428329Y1119323D1*
X432237Y1116331D1*
X436745Y1113339D1*
X448713Y1164203D2*
X452612Y1161211D1*
X455605Y1158219D1*
X457759Y1155227D1*
X459205Y1152235D1*
X460015Y1149243D1*
X460406Y1146251D1*
X460575Y1143259D1*
X460642Y1140267D1*
X460667Y1137275D1*
X460665Y1134283D1*
X460551Y1131291D1*
X460054Y1128299D1*
X458828Y1125307D1*
X456732Y1122315D1*
X453767Y1119323D1*
X449970Y1116331D1*
X445721Y1113339D1*
X487609Y1164203D2*
X499577D2*
X503362Y1161211D1*
X506408Y1158219D1*
X507517Y1155227D1*
X508114Y1152235D1*
X508382Y1149243D1*
X508490Y1146251D1*
X508531Y1143259D1*
X508546Y1140267D1*
X508551Y1137275D1*
X508552Y1134283D1*
X508541Y1131291D1*
X508424Y1128299D1*
X507915Y1125307D1*
X506946Y1122315D1*
X504235Y1119323D1*
X500664Y1116331D1*
X496585Y1113339D1*
X529497Y1164203D2*
X526619Y1161211D1*
X524022Y1158219D1*
X521864Y1155227D1*
X520138Y1152235D1*
X518882Y1149243D1*
X518150Y1146251D1*
X517788Y1143259D1*
X517630Y1140267D1*
X517578Y1137275D1*
X517659Y1134283D1*
X518043Y1131291D1*
X518874Y1128299D1*
X520150Y1125307D1*
X522000Y1122315D1*
X524719Y1119323D1*
X528354Y1116331D1*
X532489Y1113339D1*
X547449Y1164203D2*
X551112Y1161211D1*
X553886Y1158219D1*
X554198Y1155227D1*
X553433Y1152235D1*
X568393Y1164203D2*
Y1161211D1*
Y1158219D1*
Y1155227D1*
Y1152235D1*
Y1149243D1*
Y1146251D1*
Y1143259D1*
Y1140267D1*
Y1137275D1*
Y1134283D1*
Y1131291D1*
Y1128299D1*
Y1125307D1*
Y1122315D1*
Y1119323D1*
Y1116331D1*
X586345Y1113339D1*
X577369Y1164203D2*
Y1161211D1*
Y1158219D1*
Y1155227D1*
Y1152235D1*
Y1149243D1*
Y1146251D1*
Y1143259D1*
X577381Y1140267D1*
X577498Y1137275D1*
X577995Y1134283D1*
X579199Y1131291D1*
X581113Y1128299D1*
X583353Y1125307D1*
X598313Y1164203D2*
Y1161211D1*
Y1158219D1*
Y1155227D1*
Y1152235D1*
Y1149243D1*
Y1146251D1*
Y1143259D1*
X598301Y1140267D1*
X598184Y1137275D1*
X597687Y1134283D1*
X596483Y1131291D1*
X594569Y1128299D1*
X592329Y1125307D1*
X607289Y1164203D2*
Y1161211D1*
Y1158219D1*
Y1155227D1*
Y1152235D1*
Y1149243D1*
Y1146251D1*
Y1143259D1*
Y1140267D1*
Y1137275D1*
X607277Y1134283D1*
X607172Y1131291D1*
X606779Y1128299D1*
X605934Y1125307D1*
X604555Y1122315D1*
X602365Y1119323D1*
X599135Y1116331D1*
X595321Y1113339D1*
X646185Y1164203D2*
X641801Y1161211D1*
X637884Y1158219D1*
X634217Y1155227D1*
X637209Y1152235D1*
X640201Y1149243D1*
X667129Y1164203D2*
X669995Y1161211D1*
X672487Y1158219D1*
X674264Y1155227D1*
X675274Y1152235D1*
X675750Y1149243D1*
X675844Y1146251D1*
X675669Y1143259D1*
X674256Y1140267D1*
X668942Y1137275D1*
X660185Y1134283D1*
X649177Y1131291D1*
Y1128299D1*
Y1125307D1*
X694057Y1164203D2*
X691191Y1161211D1*
X688699Y1158219D1*
X686922Y1155227D1*
X685912Y1152235D1*
X685424Y1149243D1*
X685213Y1146251D1*
X685129Y1143259D1*
X685098Y1140267D1*
X685087Y1137275D1*
X685083Y1134283D1*
X685093Y1131291D1*
X685210Y1128299D1*
X685731Y1125307D1*
X686735Y1122315D1*
X689968Y1119323D1*
X694576Y1116331D1*
X700041Y1113339D1*
X712009Y1164203D2*
X715908Y1161211D1*
X718901Y1158219D1*
X721055Y1155227D1*
X722501Y1152235D1*
X723311Y1149243D1*
X723702Y1146251D1*
X723871Y1143259D1*
X723938Y1140267D1*
X723963Y1137275D1*
X723961Y1134283D1*
X723847Y1131291D1*
X723350Y1128299D1*
X722124Y1125307D1*
X720028Y1122315D1*
X717063Y1119323D1*
X713266Y1116331D1*
X709017Y1113339D1*
X744921Y1164203D2*
X741022Y1161211D1*
X738029Y1158219D1*
X735875Y1155227D1*
X734429Y1152235D1*
X733619Y1149243D1*
X733228Y1146251D1*
X733059Y1143259D1*
X732992Y1140267D1*
X732967Y1137275D1*
X732958Y1134283D1*
X732955Y1131291D1*
X732953Y1128299D1*
Y1125307D1*
Y1122315D1*
Y1119323D1*
Y1116331D1*
X756889Y1164203D2*
X762873D2*
X771849D2*
Y1161211D1*
Y1158219D1*
Y1155227D1*
Y1152235D1*
Y1149243D1*
Y1146251D1*
Y1143259D1*
Y1140267D1*
Y1137275D1*
Y1134283D1*
Y1131291D1*
Y1128299D1*
Y1125307D1*
Y1122315D1*
Y1119323D1*
Y1116331D1*
X783817Y1164203D2*
Y1161211D1*
Y1158219D1*
Y1155227D1*
Y1152235D1*
Y1149243D1*
Y1146251D1*
Y1143259D1*
Y1140267D1*
Y1137275D1*
Y1134283D1*
Y1131291D1*
Y1128299D1*
Y1125307D1*
Y1122315D1*
Y1119323D1*
Y1116331D1*
Y1113339D1*
X792793Y1164203D2*
Y1161211D1*
Y1158219D1*
Y1155227D1*
Y1152235D1*
Y1149243D1*
Y1146251D1*
X792805Y1143259D1*
X792910Y1140267D1*
X793303Y1137275D1*
X794134Y1134283D1*
X795371Y1131291D1*
X796961Y1128299D1*
X798777Y1125307D1*
X831689Y1164203D2*
X827790Y1161211D1*
X824786Y1158219D1*
X822526Y1155227D1*
X820699Y1152235D1*
X819172Y1149243D1*
X818014Y1146251D1*
X817324Y1143259D1*
X816991Y1140267D1*
X816943Y1137275D1*
X817275Y1134283D1*
X818073Y1131291D1*
X819237Y1128299D1*
X820706Y1125307D1*
X822745Y1122315D1*
X825804Y1119323D1*
X829978Y1116331D1*
X834681Y1113339D1*
X849641Y1164203D2*
X852633Y1161211D1*
X855625Y1158219D1*
X858617Y1155227D1*
X854222Y1152235D1*
X849641Y1149243D1*
X873577Y1164203D2*
X870597Y1161211D1*
X867722Y1158219D1*
X865228Y1155227D1*
X863451Y1152235D1*
X862440Y1149243D1*
X861952Y1146251D1*
X861741Y1143259D1*
X861657Y1140267D1*
X861626Y1137275D1*
Y1134283D1*
X861739Y1131291D1*
X862236Y1128299D1*
X863462Y1125307D1*
X865558Y1122315D1*
X868523Y1119323D1*
X872320Y1116331D1*
X876569Y1113339D1*
X891529Y1164203D2*
X894292Y1161211D1*
X896338Y1158219D1*
X897011Y1155227D1*
X897513Y1152235D1*
X436745Y1155227D2*
X434341Y1152235D1*
X432591Y1149243D1*
X431589Y1146251D1*
X431103Y1143259D1*
X430905Y1140267D1*
X430938Y1137275D1*
X431404Y1134283D1*
X432597Y1131291D1*
X434506Y1128299D1*
X436745Y1125307D1*
X439737Y1155227D2*
X444545Y1152235D1*
X448590Y1149243D1*
X450185Y1146251D1*
X451055Y1143259D1*
X451438Y1140267D1*
X451482Y1137275D1*
X451046Y1134283D1*
X449863Y1131291D1*
X447958Y1128299D1*
X445721Y1125307D1*
X487609Y1155227D2*
X485091Y1152235D1*
X482958Y1149243D1*
X481239Y1146251D1*
X479997Y1143259D1*
X479370Y1140267D1*
X479402Y1137275D1*
X480075Y1134283D1*
X481248Y1131291D1*
X482813Y1128299D1*
X484617Y1125307D1*
X493593Y1155227D2*
X495997Y1152235D1*
X497747Y1149243D1*
X498749Y1146251D1*
X499235Y1143259D1*
X499445Y1140267D1*
X499505Y1137275D1*
X499309Y1134283D1*
X498780Y1131291D1*
X496450Y1128299D1*
X493593Y1125307D1*
X535481Y1155227D2*
X532489Y1152235D1*
X529497Y1149243D1*
X526505Y1146251D1*
X559417Y1143259D1*
X559405Y1140267D1*
X559300Y1137275D1*
X558919Y1134283D1*
X558191Y1131291D1*
X557307Y1128299D1*
X556263Y1125307D1*
X554922Y1122315D1*
X551607Y1119323D1*
X546956Y1116331D1*
X541465Y1113339D1*
X544457Y1155227D2*
X547449Y1152235D1*
X649177Y1155227D2*
X646185Y1152235D1*
X643193Y1149243D1*
X661145Y1155227D2*
X663587Y1152235D1*
X665529Y1149243D1*
X667129Y1146251D1*
X656322Y1143259D1*
X648539Y1140267D1*
X642902Y1137275D1*
X640483Y1134283D1*
X638602Y1131291D1*
X638106Y1128299D1*
X638787Y1125307D1*
X639838Y1122315D1*
X642677Y1119323D1*
X646966Y1116331D1*
X652169Y1113339D1*
X700041Y1155227D2*
X697637Y1152235D1*
X695887Y1149243D1*
X694885Y1146251D1*
X694399Y1143259D1*
X694201Y1140267D1*
X694234Y1137275D1*
X694700Y1134283D1*
X695893Y1131291D1*
X697802Y1128299D1*
X700041Y1125307D1*
X706025Y1155227D2*
X708891Y1152235D1*
X711383Y1149243D1*
X713160Y1146251D1*
X714170Y1143259D1*
X714646Y1140267D1*
X714740Y1137275D1*
X714327Y1134283D1*
X713154Y1131291D1*
X711252Y1128299D1*
X709017Y1125307D1*
X750905Y1155227D2*
X748387Y1152235D1*
X746254Y1149243D1*
X744535Y1146251D1*
X743281Y1143259D1*
X742549Y1140267D1*
X742188Y1137275D1*
X742030Y1134283D1*
X741966Y1131291D1*
X741942Y1128299D1*
X741933Y1125307D1*
X741930Y1122315D1*
X741929Y1119323D1*
Y1116331D1*
X756889Y1155227D2*
X759293Y1152235D1*
X761043Y1149243D1*
X762045Y1146251D1*
X762531Y1143259D1*
X762741Y1140267D1*
X762825Y1137275D1*
X762856Y1134283D1*
X762867Y1131291D1*
X762871Y1128299D1*
X762872Y1125307D1*
X762873Y1122315D1*
Y1119323D1*
Y1116331D1*
X840665Y1155227D2*
X835845Y1152235D1*
X832240Y1149243D1*
X829867Y1146251D1*
X828284Y1143259D1*
X827160Y1140267D1*
X827551Y1137275D1*
X828537Y1134283D1*
X830131Y1131291D1*
X832280Y1128299D1*
X834681Y1125307D1*
X843657Y1155227D2*
X846649Y1152235D1*
X849641Y1149243D1*
X882553Y1155227D2*
X877744Y1152235D1*
X873694Y1149243D1*
X871950Y1146251D1*
X870585Y1143259D1*
X897513D1*
Y1140267D1*
Y1137275D1*
Y1134283D1*
Y1131291D1*
X897490Y1128299D1*
X897256Y1125307D1*
X896695Y1122315D1*
X893961Y1119323D1*
X890053Y1116331D1*
X885545Y1113339D1*
X888537Y1155227D2*
X891529Y1152235D1*
X523513Y1134283D2*
X526505Y1131291D1*
X529497Y1128299D1*
X532489Y1125307D1*
X547449Y1134283D2*
X546899Y1131291D1*
X545849Y1128299D1*
X544457Y1125307D1*
X867593Y1134283D2*
X870585Y1131291D1*
X873577Y1128299D1*
X876569Y1125307D1*
X894521Y1134283D2*
X892079Y1131291D1*
X890137Y1128299D1*
X888537Y1125307D1*
X670121Y1128299D2*
X664137Y1125307D1*
X849641Y1128299D2*
X843657Y1125307D1*
X852633Y1128299D2*
X855625Y1125307D1*
X858617Y1122315D1*
X854525Y1119323D1*
X849433Y1116331D1*
X843657Y1113339D1*
X673113Y1125307D2*
X674562Y1122315D1*
X672580Y1119323D1*
X668570Y1116331D1*
X664137Y1113339D1*
X807753Y1125307D2*
X810745D2*
X813094Y1122315D1*
X815139Y1119323D1*
X813205Y1116331D1*
X810745Y1113339D1*
X481625Y1119323D2*
X478633Y1116331D1*
Y1119323D2*
X484617Y1116331D1*
X490601Y1113339D1*
X801769Y1116331D2*
X804761Y1113339D1*
X544457Y1074443D2*
X541465Y1071451D1*
X538473Y1068459D1*
X535481Y1065467D1*
X532489Y1062475D1*
X529497Y1059483D1*
X526505Y1056491D1*
X523513Y1053499D1*
X520533Y1050507D1*
X517669Y1047515D1*
X515281Y1044523D1*
X513468Y1041531D1*
X513613Y1038539D1*
X514458Y1035547D1*
X515899Y1032555D1*
X517698Y1029563D1*
X519582Y1026571D1*
X521626Y1023579D1*
X523923Y1020587D1*
X526220Y1017595D1*
X528254Y1014603D1*
X530042Y1011611D1*
X531763Y1008619D1*
X533574Y1005627D1*
X535311Y1002635D1*
X536719Y999643D1*
X536494Y996651D1*
X535696Y993659D1*
X534523Y990667D1*
X533169Y987675D1*
X531819Y984683D1*
X530627Y981691D1*
X529580Y978699D1*
X528516Y975707D1*
X527459Y972715D1*
X526122Y969723D1*
X524190Y966731D1*
X517958Y963739D1*
X508843Y960747D1*
X498043Y957755D1*
X488421Y954763D1*
X480817Y951771D1*
X477665Y948779D1*
X476575Y945787D1*
X476020Y942795D1*
X475783Y939803D1*
X475692Y936811D1*
X475658Y933819D1*
X475647Y930827D1*
X475643Y927835D1*
X475642Y924843D1*
X475641Y921851D1*
Y918859D1*
Y915867D1*
Y912875D1*
X475688Y909883D1*
X475828Y906891D1*
X477277Y903899D1*
X483006Y900907D1*
X491711Y897915D1*
X502353Y894923D1*
X512325Y891931D1*
X519482Y888939D1*
X524489Y885947D1*
X526696Y882955D1*
X528526Y879963D1*
X530063Y876971D1*
X531336Y873979D1*
X532511Y870987D1*
X533953Y867995D1*
X535588Y865003D1*
X536927Y862011D1*
X537633Y859019D1*
X537858Y856027D1*
X536706Y853035D1*
X535123Y850043D1*
X533362Y847051D1*
X531459Y844059D1*
X529457Y841067D1*
X527491Y838075D1*
X525417Y835083D1*
X523108Y832091D1*
X520796Y829099D1*
X518667Y826107D1*
X516615Y823115D1*
X514675Y820123D1*
X512999Y817131D1*
X512527Y814139D1*
X513600Y811147D1*
X515465Y808155D1*
X517911Y805163D1*
X520667Y802171D1*
X523566Y799179D1*
X526524Y796187D1*
X529503Y793195D1*
X532491Y790203D1*
X535482Y787211D1*
X538473Y784219D1*
X541465Y781227D1*
X544457Y778235D1*
X550441Y1074443D2*
X554918Y1071451D1*
X559554Y1068459D1*
X564005Y1065467D1*
X568312Y1062475D1*
X572919Y1059483D1*
X578012Y1056491D1*
X583353Y1053499D1*
X771849Y1074443D2*
X767372Y1071451D1*
X762736Y1068459D1*
X758285Y1065467D1*
X753978Y1062475D1*
X749371Y1059483D1*
X744278Y1056491D1*
X738937Y1053499D1*
X777833Y1074443D2*
X780825Y1071451D1*
X783817Y1068459D1*
X786809Y1065467D1*
X789801Y1062475D1*
X792793Y1059483D1*
X795785Y1056491D1*
X798777Y1053499D1*
X801757Y1050507D1*
X804621Y1047515D1*
X807009Y1044523D1*
X808822Y1041531D1*
X808677Y1038539D1*
X807832Y1035547D1*
X806391Y1032555D1*
X804592Y1029563D1*
X802708Y1026571D1*
X800664Y1023579D1*
X798367Y1020587D1*
X796070Y1017595D1*
X794036Y1014603D1*
X792248Y1011611D1*
X790527Y1008619D1*
X788716Y1005627D1*
X786979Y1002635D1*
X785571Y999643D1*
X785796Y996651D1*
X786594Y993659D1*
X787767Y990667D1*
X789121Y987675D1*
X790470Y984683D1*
X791663Y981691D1*
X792709Y978699D1*
X793774Y975707D1*
X794831Y972715D1*
X796168Y969723D1*
X798100Y966731D1*
X804332Y963739D1*
X813447Y960747D1*
X824247Y957755D1*
X833869Y954763D1*
X841473Y951771D1*
X844625Y948779D1*
X845715Y945787D1*
X846270Y942795D1*
X846507Y939803D1*
X846598Y936811D1*
X846632Y933819D1*
X846643Y930827D1*
X846647Y927835D1*
X846648Y924843D1*
X846649Y921851D1*
Y918859D1*
Y915867D1*
Y912875D1*
X846602Y909883D1*
X846462Y906891D1*
X845013Y903899D1*
X839284Y900907D1*
X830578Y897915D1*
X819937Y894923D1*
X809965Y891931D1*
X802808Y888939D1*
X797801Y885947D1*
X795594Y882955D1*
X793764Y879963D1*
X792227Y876971D1*
X790954Y873979D1*
X789779Y870987D1*
X788337Y867995D1*
X786702Y865003D1*
X785363Y862011D1*
X784657Y859019D1*
X784432Y856027D1*
X785584Y853035D1*
X787167Y850043D1*
X788928Y847051D1*
X790831Y844059D1*
X792833Y841067D1*
X794799Y838075D1*
X796873Y835083D1*
X799182Y832091D1*
X801493Y829099D1*
X803623Y826107D1*
X805675Y823115D1*
X807614Y820123D1*
X809291Y817131D1*
X809763Y814139D1*
X808690Y811147D1*
X806825Y808155D1*
X804379Y805163D1*
X801623Y802171D1*
X798724Y799179D1*
X795766Y796187D1*
X792787Y793195D1*
X789799Y790203D1*
X786808Y787211D1*
X783817Y784219D1*
X780825Y781227D1*
X777833Y778235D1*
X604297Y1059483D2*
X598313Y1056491D1*
X592329Y1053499D1*
X607289Y1059483D2*
X608324Y1056491D1*
X609319Y1053499D1*
X610279Y1050507D1*
X611394Y1047515D1*
X612686Y1044523D1*
X614084Y1041531D1*
X615531Y1038539D1*
X616915Y1035547D1*
X618120Y1032555D1*
X619183Y1029563D1*
X620342Y1026571D1*
X621641Y1023579D1*
X622951Y1020587D1*
X624124Y1017595D1*
X625174Y1014603D1*
X626329Y1011611D1*
X627625Y1008619D1*
X628936Y1005627D1*
X630108Y1002635D1*
X631158Y999643D1*
X632313Y996651D1*
X633621Y993659D1*
X635025Y990667D1*
X636474Y987675D1*
X637836Y984683D1*
X638807Y981691D1*
X639290Y978699D1*
X638108Y975707D1*
X635190Y972715D1*
X631887Y969723D1*
X628584Y966731D1*
X625413Y963739D1*
X622432Y960747D1*
X619792Y957755D1*
X617606Y954763D1*
X615768Y951771D1*
X614129Y948779D1*
X612679Y945787D1*
X611539Y942795D1*
X610753Y939803D1*
X610031Y936811D1*
X609163Y933819D1*
X608347Y930827D1*
X607907Y927835D1*
X608002Y924843D1*
X608589Y921851D1*
X609314Y918859D1*
X609921Y915867D1*
X610584Y912875D1*
X611542Y909883D1*
X612847Y906891D1*
X614498Y903899D1*
X616384Y900907D1*
X618312Y897915D1*
X620484Y894923D1*
X623284Y891931D1*
X626832Y888939D1*
X631181Y885947D1*
X636770Y882955D1*
X643993Y879963D1*
X652169Y876971D1*
X715001Y1059483D2*
X713966Y1056491D1*
X712971Y1053499D1*
X712011Y1050507D1*
X710896Y1047515D1*
X709604Y1044523D1*
X708206Y1041531D1*
X706759Y1038539D1*
X705375Y1035547D1*
X704170Y1032555D1*
X703107Y1029563D1*
X701948Y1026571D1*
X700649Y1023579D1*
X699339Y1020587D1*
X698166Y1017595D1*
X697116Y1014603D1*
X695961Y1011611D1*
X694665Y1008619D1*
X693354Y1005627D1*
X692182Y1002635D1*
X691132Y999643D1*
X689977Y996651D1*
X688669Y993659D1*
X687265Y990667D1*
X685816Y987675D1*
X684454Y984683D1*
X683483Y981691D1*
X683000Y978699D1*
X684182Y975707D1*
X687100Y972715D1*
X690403Y969723D1*
X693706Y966731D1*
X696877Y963739D1*
X699858Y960747D1*
X702498Y957755D1*
X704684Y954763D1*
X706522Y951771D1*
X708161Y948779D1*
X709611Y945787D1*
X710751Y942795D1*
X711537Y939803D1*
X712259Y936811D1*
X713127Y933819D1*
X713943Y930827D1*
X714383Y927835D1*
X714288Y924843D1*
X713701Y921851D1*
X712976Y918859D1*
X712369Y915867D1*
X711706Y912875D1*
X710748Y909883D1*
X709443Y906891D1*
X707792Y903899D1*
X705906Y900907D1*
X703978Y897915D1*
X701806Y894923D1*
X699006Y891931D1*
X695458Y888939D1*
X691109Y885947D1*
X685520Y882955D1*
X678297Y879963D1*
X670121Y876971D1*
X717993Y1059483D2*
X723977Y1056491D1*
X729961Y1053499D1*
X586345Y805163D2*
X582891Y802171D1*
X579145Y799179D1*
X575273Y796187D1*
X571364Y793195D1*
X567272Y790203D1*
X563003Y787211D1*
X558692Y784219D1*
X554496Y781227D1*
X550441Y778235D1*
X589337Y805163D2*
X597725Y802171D1*
X605447Y799179D1*
X612305Y796187D1*
X618159Y793195D1*
X622641Y790203D1*
X626020Y787211D1*
X627168Y784219D1*
X627795Y781227D1*
X628175Y778235D1*
X628667Y775243D1*
X629425Y772251D1*
X630207Y769259D1*
X630746Y766267D1*
X631130Y763275D1*
X631639Y760283D1*
X632408Y757291D1*
X633196Y754299D1*
X633727Y751307D1*
X634023Y748315D1*
X634217Y745323D1*
X732953Y805163D2*
X724565Y802171D1*
X716843Y799179D1*
X709985Y796187D1*
X704131Y793195D1*
X699649Y790203D1*
X696270Y787211D1*
X695122Y784219D1*
X694495Y781227D1*
X694115Y778235D1*
X693623Y775243D1*
X692865Y772251D1*
X692083Y769259D1*
X691544Y766267D1*
X691160Y763275D1*
X690651Y760283D1*
X689882Y757291D1*
X689094Y754299D1*
X688563Y751307D1*
X688267Y748315D1*
X688073Y745323D1*
X735945Y805163D2*
X739399Y802171D1*
X743145Y799179D1*
X747017Y796187D1*
X750926Y793195D1*
X755018Y790203D1*
X759287Y787211D1*
X763598Y784219D1*
X767794Y781227D1*
X771849Y778235D1*
X651520Y1583754D2*
X649665Y1580762D1*
X647959Y1577770D1*
X646368Y1574778D1*
X644958Y1571786D1*
X643748Y1568794D1*
X643773Y1565802D1*
X645716Y1562810D1*
X648288Y1559818D1*
X650777Y1556826D1*
X652591Y1553834D1*
X653814Y1550842D1*
X653728Y1547850D1*
X653178Y1544858D1*
X652485Y1541866D1*
X652004Y1538874D1*
X651854Y1535882D1*
X652217Y1532890D1*
X653252Y1529898D1*
X654603Y1526906D1*
X655782Y1523914D1*
X655354Y1520922D1*
X654512Y1517930D1*
Y1583754D2*
X653478Y1580762D1*
X652473Y1577770D1*
X651441Y1574778D1*
X650110Y1571786D1*
X648528Y1568794D1*
X654512Y1565802D1*
X684432Y1583754D2*
X685467Y1580762D1*
X686472Y1577770D1*
X687503Y1574778D1*
X688835Y1571786D1*
X690416Y1568794D1*
X684432Y1565802D1*
X687424Y1583754D2*
X689280Y1580762D1*
X690986Y1577770D1*
X692577Y1574778D1*
X693987Y1571786D1*
X695197Y1568794D1*
X695171Y1565802D1*
X693229Y1562810D1*
X690657Y1559818D1*
X688168Y1556826D1*
X686353Y1553834D1*
X685131Y1550842D1*
X685216Y1547850D1*
X685767Y1544858D1*
X686460Y1541866D1*
X686941Y1538874D1*
X687091Y1535882D1*
X686727Y1532890D1*
X685692Y1529898D1*
X684342Y1526906D1*
X683163Y1523914D1*
X683590Y1520922D1*
X684432Y1517930D1*
X663488Y1568794D2*
X660496Y1565802D1*
X675456Y1568794D2*
X678448Y1565802D1*
X606640Y1550842D2*
X607114Y1547850D1*
X607973Y1544858D1*
X609234Y1541866D1*
X610868Y1538874D1*
X612747Y1535882D1*
X614661Y1532890D1*
X616739Y1529898D1*
X619262Y1526906D1*
X622439Y1523914D1*
X626394Y1520922D1*
X630814Y1517930D1*
X635085Y1514938D1*
X638974Y1511946D1*
X642751Y1508954D1*
X646664Y1505962D1*
X650621Y1502970D1*
X654512Y1499978D1*
X609632Y1550842D2*
X611129Y1547850D1*
X612890Y1544858D1*
X614835Y1541866D1*
X617249Y1538874D1*
X620369Y1535882D1*
X623938Y1532890D1*
X627812Y1529898D1*
X632240Y1526906D1*
X637317Y1523914D1*
X642835Y1520922D1*
X648528Y1517930D1*
X729312Y1550842D2*
X727815Y1547850D1*
X726055Y1544858D1*
X724109Y1541866D1*
X721696Y1538874D1*
X718576Y1535882D1*
X715007Y1532890D1*
X711132Y1529898D1*
X706705Y1526906D1*
X701628Y1523914D1*
X696109Y1520922D1*
X690416Y1517930D1*
X732304Y1550842D2*
X731830Y1547850D1*
X730972Y1544858D1*
X729710Y1541866D1*
X728077Y1538874D1*
X726198Y1535882D1*
X724284Y1532890D1*
X722206Y1529898D1*
X719682Y1526906D1*
X716505Y1523914D1*
X712551Y1520922D1*
X708131Y1517930D1*
X703859Y1514938D1*
X699971Y1511946D1*
X696193Y1508954D1*
X692281Y1505962D1*
X688324Y1502970D1*
X684432Y1499978D1*
X630576D2*
X617393Y1496986D1*
X603648Y1493994D1*
X606453Y1491002D1*
X609632Y1488010D1*
X645536Y1499978D2*
X693408D2*
X708368D2*
X721552Y1496986D1*
X735296Y1493994D1*
X732491Y1491002D1*
X729312Y1488010D1*
X615616Y1491002D2*
X612624Y1488010D1*
X636560Y1491002D2*
X643886Y1488010D1*
X649522Y1485018D1*
X653797Y1482026D1*
X655827Y1479034D1*
X657504Y1476042D1*
X651288Y1473050D1*
X645835Y1470058D1*
X641211Y1467066D1*
X637414Y1464074D1*
X634369Y1461082D1*
X631907Y1458090D1*
X629609Y1455098D1*
X627123Y1452106D1*
X624503Y1449114D1*
X622028Y1446122D1*
X619921Y1443130D1*
X618214Y1440138D1*
X616966Y1437146D1*
X616236Y1434154D1*
X615875Y1431162D1*
X615717Y1428170D1*
X615654Y1425178D1*
X615629Y1422186D1*
X615621Y1419194D1*
X615618Y1416202D1*
X615617Y1413210D1*
Y1410218D1*
X615616Y1407226D1*
X702384Y1491002D2*
X695059Y1488010D1*
X689423Y1485018D1*
X685148Y1482026D1*
X683118Y1479034D1*
X681440Y1476042D1*
X687657Y1473050D1*
X693109Y1470058D1*
X697734Y1467066D1*
X701531Y1464074D1*
X704576Y1461082D1*
X707037Y1458090D1*
X709336Y1455098D1*
X711822Y1452106D1*
X714441Y1449114D1*
X716917Y1446122D1*
X719024Y1443130D1*
X720731Y1440138D1*
X721979Y1437146D1*
X722709Y1434154D1*
X723070Y1431162D1*
X723228Y1428170D1*
X723291Y1425178D1*
X723315Y1422186D1*
X723324Y1419194D1*
X723327Y1416202D1*
X723328Y1413210D1*
Y1410218D1*
Y1407226D1*
X720336Y1491002D2*
X723328Y1488010D1*
X642544Y1458090D2*
X639552Y1455098D1*
X636560Y1452106D1*
X633568Y1449114D1*
X630576Y1446122D1*
X627596Y1443130D1*
X624721Y1440138D1*
X622227Y1437146D1*
X620450Y1434154D1*
X619440Y1431162D1*
X618952Y1428170D1*
X618741Y1425178D1*
X618657Y1422186D1*
X618625Y1419194D1*
X618614Y1416202D1*
X618610Y1413210D1*
X618609Y1410218D1*
X618608Y1407226D1*
X648528Y1458090D2*
Y1455098D1*
Y1452106D1*
Y1449114D1*
X648540Y1446122D1*
X648645Y1443130D1*
X649027Y1440138D1*
X649743Y1437146D1*
X650522Y1434154D1*
X651149Y1431162D1*
X651819Y1428170D1*
X652780Y1425178D1*
X654109Y1422186D1*
X655980Y1419194D1*
X658707Y1416202D1*
X662345Y1413210D1*
X666480Y1410218D1*
X690416Y1458090D2*
Y1455098D1*
Y1452106D1*
Y1449114D1*
X690405Y1446122D1*
X690300Y1443130D1*
X689918Y1440138D1*
X689202Y1437146D1*
X688423Y1434154D1*
X687796Y1431162D1*
X687125Y1428170D1*
X686165Y1425178D1*
X684835Y1422186D1*
X682965Y1419194D1*
X680238Y1416202D1*
X676600Y1413210D1*
X672464Y1410218D1*
X696400Y1458090D2*
X699392Y1455098D1*
X702384Y1452106D1*
X705376Y1449114D1*
X708368Y1446122D1*
X711349Y1443130D1*
X714224Y1440138D1*
X716718Y1437146D1*
X718495Y1434154D1*
X719505Y1431162D1*
X719993Y1428170D1*
X720204Y1425178D1*
X720288Y1422186D1*
X720319Y1419194D1*
X720331Y1416202D1*
X720334Y1413210D1*
X720336Y1410218D1*
Y1407226D1*
X659156Y2051864D2*
Y2048872D1*
X659145Y2045880D1*
X659040Y2042888D1*
X658658Y2039896D1*
X657930Y2036904D1*
X657058Y2033912D1*
X656155Y2030920D1*
X655160Y2027928D1*
X654266Y2024936D1*
X653692Y2021944D1*
X653406Y2018952D1*
X653377Y2015960D1*
X653705Y2012968D1*
X654426Y2009976D1*
X655309Y2006984D1*
X656164Y2003992D1*
X662148Y2051864D2*
X663160Y2048872D1*
X663945Y2045880D1*
X664371Y2042888D1*
X663767Y2039896D1*
X663087Y2036904D1*
X662608Y2033912D1*
X662349Y2030920D1*
X662229Y2027928D1*
X662179Y2024936D1*
X662171Y2021944D1*
X662269Y2018952D1*
X662648Y2015960D1*
X663387Y2012968D1*
X664382Y2009976D1*
X665831Y2006984D1*
X668169Y2003992D1*
X671124Y2001000D1*
X602308Y2048872D2*
X605056Y2045880D1*
X608451Y2042888D1*
X612187Y2039896D1*
X615666Y2036904D1*
X618517Y2033912D1*
X621032Y2030920D1*
X623534Y2027928D1*
X625912Y2024936D1*
X627977Y2021944D1*
X629764Y2018952D1*
X631395Y2015960D1*
X632952Y2012968D1*
X634549Y2009976D1*
X636303Y2006984D1*
X638212Y2003992D1*
X635220Y2001000D1*
X608292Y2048872D2*
X613128Y2045880D1*
X617721Y2042888D1*
X621911Y2039896D1*
X625515Y2036904D1*
X628470Y2033912D1*
X630797Y2030920D1*
X632703Y2027928D1*
X634481Y2024936D1*
X636437Y2021944D1*
X638771Y2018952D1*
X641329Y2015960D1*
X643791Y2012968D1*
X645981Y2009976D1*
X648060Y2006984D1*
X650180Y2003992D1*
X716004Y2039896D2*
X711620Y2036904D1*
X707663Y2033912D1*
X703855Y2030920D1*
X699954Y2027928D1*
X696128Y2024936D1*
X692690Y2021944D1*
X689791Y2018952D1*
X687397Y2015960D1*
X685235Y2012968D1*
X683242Y2009976D1*
X681724Y2006984D1*
X680775Y2003992D1*
X680100Y2001000D1*
X745924Y2039896D2*
Y2036904D1*
X730502Y2033912D1*
X719776Y2030920D1*
X712871Y2027928D1*
X708143Y2024936D1*
X704460Y2021944D1*
X701316Y2018952D1*
X698690Y2015960D1*
X696687Y2012968D1*
X695060Y2009976D1*
X709870Y2006984D1*
X721420Y2003992D1*
X729392Y2001000D1*
X734551Y1998008D1*
X737852Y1995016D1*
X740035Y1992024D1*
X741670Y1989032D1*
X741845Y1986040D1*
X741338Y1983048D1*
X740212Y1980056D1*
X738398Y1977064D1*
X735963Y1974072D1*
X730364Y1971080D1*
X721653Y1968088D1*
X709325Y1965096D1*
X695060Y1962104D1*
X696671Y1959112D1*
X698804Y1956120D1*
X701361Y1953128D1*
X704160Y1950136D1*
X707179Y1947144D1*
X711167Y1944152D1*
X718310Y1941160D1*
X730504Y1938168D1*
X745924Y1935176D1*
Y1932184D1*
X584356Y2012968D2*
X579082Y2009976D1*
X574795Y2006984D1*
X571755Y2003992D1*
X569396Y2001000D1*
X590340Y2012968D2*
X591940Y2009976D1*
X594007Y2006984D1*
X596324Y2003992D1*
X590340Y2006984D2*
X581364Y2003992D1*
X572388Y2001000D1*
X587348Y2006984D2*
X587898Y2003992D1*
X588948Y2001000D1*
X590340Y1998008D1*
X587936Y1995016D1*
X586187Y1992024D1*
X585196Y1989032D1*
X584827Y1986040D1*
X584845Y1983048D1*
X586168Y1980056D1*
X588099Y1977064D1*
X590340Y1974072D1*
X588751Y1971080D1*
X587348Y1968088D1*
X611284Y2003992D2*
X623252D2*
X626244Y2001000D1*
X569396Y1971080D2*
X571594Y1968088D1*
X574956Y1965096D1*
X579412Y1962104D1*
X584356Y1959112D1*
X572388Y1971080D2*
X581364Y1968088D1*
X629236Y1974072D2*
X626244Y1971080D1*
X623252Y1968088D1*
X632228Y1974072D2*
X635220Y1971080D1*
X638212Y1968088D1*
X636357Y1965096D1*
X634651Y1962104D1*
X633048Y1959112D1*
X631498Y1956120D1*
X629877Y1953128D1*
X627995Y1950136D1*
X625778Y1947144D1*
X623493Y1944152D1*
X621262Y1941160D1*
X618705Y1938168D1*
X615448Y1935176D1*
X611705Y1932184D1*
X608039Y1929192D1*
X604941Y1926200D1*
X602308Y1923208D1*
X677108Y1974072D2*
X672289Y1971080D1*
X668684Y1968088D1*
X666299Y1965096D1*
X664610Y1962104D1*
X663423Y1959112D1*
X662733Y1956120D1*
X662393Y1953128D1*
X662244Y1950136D1*
X662184Y1947144D1*
X662161Y1944152D1*
X662164Y1941160D1*
X662267Y1938168D1*
X662635Y1935176D1*
X663246Y1932184D1*
X663630Y1929192D1*
X663412Y1926200D1*
X662815Y1923208D1*
X662148Y1920216D1*
X680100Y1974072D2*
X680226Y1971080D1*
X680715Y1968088D1*
X681825Y1965096D1*
X683426Y1962104D1*
X685213Y1959112D1*
X687239Y1956120D1*
X689730Y1953128D1*
X692794Y1950136D1*
X696365Y1947144D1*
X700079Y1944152D1*
X703686Y1941160D1*
X707410Y1938168D1*
X711554Y1935176D1*
X716004Y1932184D1*
X599316Y1971080D2*
X596447Y1968088D1*
X593920Y1965096D1*
X591951Y1962104D1*
X590340Y1959112D1*
X608292Y1971080D2*
X611284Y1968088D1*
X653172Y1971080D2*
X650643Y1968088D1*
X648393Y1965096D1*
X646175Y1962104D1*
X643719Y1959112D1*
X641110Y1956120D1*
X638638Y1953128D1*
X636521Y1950136D1*
X634697Y1947144D1*
X632951Y1944152D1*
X630995Y1941160D1*
X628547Y1938168D1*
X625492Y1935176D1*
X621816Y1932184D1*
X617647Y1929192D1*
X613088Y1926200D1*
X608292Y1923208D1*
X656164Y1971080D2*
X655702Y1968088D1*
X654960Y1965096D1*
X654186Y1962104D1*
X653662Y1959112D1*
X653395Y1956120D1*
X653373Y1953128D1*
X653702Y1950136D1*
X654410Y1947144D1*
X655275Y1944152D1*
X656176Y1941160D1*
X657169Y1938168D1*
X658063Y1935176D1*
X658637Y1932184D1*
X658934Y1929192D1*
X659069Y1926200D1*
X659126Y1923208D1*
X659156Y1920216D1*
X775485Y705013D2*
X777209Y702021D1*
X779714Y699029D1*
X782883Y696037D1*
X786068Y693045D1*
X788776Y690053D1*
X791143Y687061D1*
X793337Y684069D1*
X795278Y681077D1*
X797002Y678085D1*
X798593Y675093D1*
X800025Y672101D1*
X801156Y669109D1*
X801885Y666117D1*
X802413Y663125D1*
X778477Y705013D2*
X782491Y702021D1*
X786374Y699029D1*
X789921Y696037D1*
X793101Y693045D1*
X795844Y690053D1*
X798174Y687061D1*
X800408Y684069D1*
X802780Y681077D1*
X805104Y678085D1*
X807139Y675093D1*
X808842Y672101D1*
X810223Y669109D1*
X811389Y666117D1*
X820365Y705013D2*
X820353Y702021D1*
X820248Y699029D1*
X819866Y696037D1*
X819138Y693045D1*
X818266Y690053D1*
X817363Y687061D1*
X816380Y684069D1*
X815592Y681077D1*
X815157Y678085D1*
X815758Y675093D1*
X816443Y672101D1*
X816965Y669109D1*
X817373Y666117D1*
X823357Y705013D2*
Y702021D1*
Y699029D1*
Y696037D1*
Y693045D1*
Y690053D1*
Y687061D1*
Y684069D1*
Y681077D1*
Y678085D1*
X823380Y675093D1*
X823608Y672101D1*
X824151Y669109D1*
X826483Y666117D1*
X829341Y663125D1*
X865245Y696037D2*
X860872Y693045D1*
X857020Y690053D1*
X853593Y687061D1*
X850409Y684069D1*
X847350Y681077D1*
X844434Y678085D1*
X841824Y675093D1*
X839659Y672101D1*
X837903Y669109D1*
X836501Y666117D1*
X835325Y663125D1*
X886189Y696037D2*
Y693045D1*
X874910Y690053D1*
X866762Y687061D1*
X861161Y684069D1*
X857023Y681077D1*
X853677Y678085D1*
X850970Y675093D1*
X848935Y672101D1*
X847293Y669109D1*
X860964Y666117D1*
X870745Y663125D1*
X877854Y660133D1*
X880946Y657141D1*
X882128Y654149D1*
X882739Y651157D1*
X882896Y648165D1*
X882754Y645173D1*
X881579Y642181D1*
X878885Y639189D1*
X871734Y636197D1*
X860743Y633205D1*
X847293Y630213D1*
X848904Y627221D1*
X851036Y624229D1*
X853593Y621237D1*
X856463Y618245D1*
X860060Y615253D1*
X865797Y612261D1*
X874915Y609269D1*
X886189Y606277D1*
Y603285D1*
X760525Y672101D2*
X756691Y669109D1*
X753824Y666117D1*
X751549Y663125D1*
X766509Y672101D2*
X772301Y669109D1*
X781625Y666117D1*
X793437Y663125D1*
X757533Y666117D2*
X754541Y663125D1*
X766509Y666117D2*
X766035Y663125D1*
X765188Y660133D1*
X764043Y657141D1*
X762908Y654149D1*
X761971Y651157D1*
X762357Y648165D1*
X763232Y645173D1*
X764363Y642181D1*
X765489Y639189D1*
X766509Y636197D1*
X751549D2*
X753699Y633205D1*
X756816Y630213D1*
X760525Y627221D1*
X757533Y636197D2*
X817373Y639189D2*
X793437Y636197D1*
X769501Y633205D1*
X768098Y630213D1*
X766509Y627221D1*
X802413Y639189D2*
X802299Y636197D1*
X801904Y633205D1*
X801081Y630213D1*
X799921Y627221D1*
X798566Y624229D1*
X797035Y621237D1*
X795276Y618245D1*
X793334Y615253D1*
X791295Y612261D1*
X788839Y609269D1*
X785725Y606277D1*
X782381Y603285D1*
X779463Y600293D1*
X777257Y597301D1*
X775485Y594309D1*
X835325Y639189D2*
X830517Y636197D1*
X826471Y633205D1*
X824877Y630213D1*
X824007Y627221D1*
X823612Y624229D1*
X823451Y621237D1*
X823390Y618245D1*
X823368Y615253D1*
X823360Y612261D1*
X823358Y609269D1*
X823357Y606277D1*
Y603285D1*
Y600293D1*
Y597301D1*
Y594309D1*
X835325Y639189D2*
X835799Y636197D1*
X836657Y633205D1*
X837930Y630213D1*
X839669Y627221D1*
X841929Y624229D1*
X844560Y621237D1*
X847394Y618245D1*
X850334Y615253D1*
X853415Y612261D1*
X856861Y609269D1*
X860873Y606277D1*
X865245Y603285D1*
X811389Y636197D2*
X810915Y633205D1*
X810056Y630213D1*
X808783Y627221D1*
X807056Y624229D1*
X804901Y621237D1*
X802652Y618245D1*
X800535Y615253D1*
X798373Y612261D1*
X795916Y609269D1*
X793104Y606277D1*
X789859Y603285D1*
X786179Y600293D1*
X782317Y597301D1*
X778477Y594309D1*
X817373Y636197D2*
X817259Y633205D1*
X816875Y630213D1*
X816170Y627221D1*
X815508Y624229D1*
X815367Y621237D1*
X815818Y618245D1*
X816563Y615253D1*
X817414Y612261D1*
X818388Y609269D1*
X819274Y606277D1*
X819846Y603285D1*
X820144Y600293D1*
X820283Y597301D1*
X820365Y594309D1*
X490103Y487166D2*
X488248Y484174D1*
X486542Y481182D1*
X484951Y478190D1*
X483541Y475198D1*
X482330Y472206D1*
X482356Y469214D1*
X484298Y466222D1*
X486871Y463230D1*
X489359Y460238D1*
X491174Y457246D1*
X492397Y454254D1*
X492311Y451262D1*
X491761Y448270D1*
X491067Y445278D1*
X490586Y442286D1*
X490437Y439294D1*
X490800Y436302D1*
X491835Y433310D1*
X493186Y430318D1*
X494365Y427326D1*
X493937Y424334D1*
X493095Y421342D1*
Y487166D2*
X492061Y484174D1*
X491056Y481182D1*
X490024Y478190D1*
X488692Y475198D1*
X487111Y472206D1*
X493095Y469214D1*
X523015Y487166D2*
X524050Y484174D1*
X525054Y481182D1*
X526086Y478190D1*
X527418Y475198D1*
X528999Y472206D1*
X523015Y469214D1*
X526007Y487166D2*
X527862Y484174D1*
X529569Y481182D1*
X531159Y478190D1*
X532569Y475198D1*
X533780Y472206D1*
X533754Y469214D1*
X531812Y466222D1*
X529240Y463230D1*
X526751Y460238D1*
X524936Y457246D1*
X523714Y454254D1*
X523799Y451262D1*
X524350Y448270D1*
X525043Y445278D1*
X525524Y442286D1*
X525673Y439294D1*
X525310Y436302D1*
X524275Y433310D1*
X522924Y430318D1*
X521746Y427326D1*
X522173Y424334D1*
X523015Y421342D1*
X502071Y472206D2*
X499079Y469214D1*
X514039Y472206D2*
X517031Y469214D1*
X445223Y454254D2*
X445697Y451262D1*
X446556Y448270D1*
X447817Y445278D1*
X449451Y442286D1*
X451329Y439294D1*
X453243Y436302D1*
X455322Y433310D1*
X457845Y430318D1*
X461022Y427326D1*
X464976Y424334D1*
X469397Y421342D1*
X473668Y418350D1*
X477557Y415358D1*
X481334Y412366D1*
X485247Y409374D1*
X489204Y406382D1*
X493095Y403390D1*
X448215Y454254D2*
X449712Y451262D1*
X451473Y448270D1*
X453418Y445278D1*
X455831Y442286D1*
X458952Y439294D1*
X462521Y436302D1*
X466395Y433310D1*
X470823Y430318D1*
X475899Y427326D1*
X481418Y424334D1*
X487111Y421342D1*
X567895Y454254D2*
X566398Y451262D1*
X564637Y448270D1*
X562692Y445278D1*
X560279Y442286D1*
X557159Y439294D1*
X553590Y436302D1*
X549715Y433310D1*
X545287Y430318D1*
X540211Y427326D1*
X534692Y424334D1*
X528999Y421342D1*
X570887Y454254D2*
X570413Y451262D1*
X569554Y448270D1*
X568293Y445278D1*
X566660Y442286D1*
X564781Y439294D1*
X562867Y436302D1*
X560788Y433310D1*
X558265Y430318D1*
X555088Y427326D1*
X551134Y424334D1*
X546713Y421342D1*
X542442Y418350D1*
X538553Y415358D1*
X534776Y412366D1*
X530864Y409374D1*
X526906Y406382D1*
X523015Y403390D1*
X469159D2*
X455976Y400398D1*
X442231Y397406D1*
X445036Y394414D1*
X448215Y391422D1*
X484119Y403390D2*
X531991D2*
X546951D2*
X560135Y400398D1*
X573879Y397406D1*
X571074Y394414D1*
X567895Y391422D1*
X454199Y394414D2*
X451207Y391422D1*
X475143Y394414D2*
X482469Y391422D1*
X488105Y388430D1*
X492379Y385438D1*
X494410Y382446D1*
X496087Y379454D1*
X489870Y376462D1*
X484418Y373470D1*
X479793Y370478D1*
X475997Y367486D1*
X472952Y364494D1*
X470490Y361502D1*
X468191Y358510D1*
X465705Y355518D1*
X463086Y352526D1*
X460611Y349534D1*
X458504Y346542D1*
X456797Y343550D1*
X455548Y340558D1*
X454818Y337566D1*
X454458Y334574D1*
X454300Y331582D1*
X454236Y328590D1*
X454212Y325598D1*
X454204Y322606D1*
X454201Y319614D1*
X454200Y316622D1*
X454199Y313630D1*
Y310638D1*
X540967Y394414D2*
X533641Y391422D1*
X528005Y388430D1*
X523731Y385438D1*
X521701Y382446D1*
X520023Y379454D1*
X526240Y376462D1*
X531692Y373470D1*
X536317Y370478D1*
X540113Y367486D1*
X543158Y364494D1*
X545620Y361502D1*
X547919Y358510D1*
X550405Y355518D1*
X553024Y352526D1*
X555499Y349534D1*
X557607Y346542D1*
X559313Y343550D1*
X560562Y340558D1*
X561292Y337566D1*
X561652Y334574D1*
X561810Y331582D1*
X561874Y328590D1*
X561898Y325598D1*
X561907Y322606D1*
X561910Y319614D1*
X561911Y316622D1*
Y313630D1*
Y310638D1*
X558919Y394414D2*
X561911Y391422D1*
X481127Y361502D2*
X478135Y358510D1*
X475143Y355518D1*
X472151Y352526D1*
X469159Y349534D1*
X466179Y346542D1*
X463304Y343550D1*
X460810Y340558D1*
X459033Y337566D1*
X458022Y334574D1*
X457534Y331582D1*
X457323Y328590D1*
X457239Y325598D1*
X457208Y322606D1*
X457197Y319614D1*
X457193Y316622D1*
X457192Y313630D1*
X457191Y310638D1*
X487111Y361502D2*
Y358510D1*
Y355518D1*
Y352526D1*
X487123Y349534D1*
X487228Y346542D1*
X487609Y343550D1*
X488326Y340558D1*
X489105Y337566D1*
X489732Y334574D1*
X490402Y331582D1*
X491362Y328590D1*
X492692Y325598D1*
X494563Y322606D1*
X497289Y319614D1*
X500927Y316622D1*
X505063Y313630D1*
X528999Y361502D2*
Y358510D1*
Y355518D1*
Y352526D1*
X528987Y349534D1*
X528882Y346542D1*
X528501Y343550D1*
X527784Y340558D1*
X527005Y337566D1*
X526378Y334574D1*
X525708Y331582D1*
X524748Y328590D1*
X523418Y325598D1*
X521548Y322606D1*
X518821Y319614D1*
X515183Y316622D1*
X511047Y313630D1*
X534983Y361502D2*
X537975Y358510D1*
X540967Y355518D1*
X543959Y352526D1*
X546951Y349534D1*
X549931Y346542D1*
X552806Y343550D1*
X555300Y340558D1*
X557078Y337566D1*
X558088Y334574D1*
X558576Y331582D1*
X558787Y328590D1*
X558871Y325598D1*
X558902Y322606D1*
X558913Y319614D1*
X558917Y316622D1*
X558918Y313630D1*
X558919Y310638D1*
X399629Y1434279D2*
X398720Y1431287D1*
X397969Y1428295D1*
X398302Y1425303D1*
X398822Y1422311D1*
X399223Y1419319D1*
X399449Y1416327D1*
X399556Y1413335D1*
X399602Y1410343D1*
X399619Y1407351D1*
X399614Y1404359D1*
X399511Y1401367D1*
X399131Y1398375D1*
X398391Y1395383D1*
X397396Y1392391D1*
X395947Y1389399D1*
X393608Y1386407D1*
X390653Y1383415D1*
X402621Y1434279D2*
Y1431287D1*
X402633Y1428295D1*
X402738Y1425303D1*
X403119Y1422311D1*
X403848Y1419319D1*
X404720Y1416327D1*
X405623Y1413335D1*
X406617Y1410343D1*
X407511Y1407351D1*
X408085Y1404359D1*
X408371Y1401367D1*
X408400Y1398375D1*
X408072Y1395383D1*
X407351Y1392391D1*
X406469Y1389399D1*
X405613Y1386407D1*
X453485Y1431287D2*
X448650Y1428295D1*
X444056Y1425303D1*
X439867Y1422311D1*
X436263Y1419319D1*
X433308Y1416327D1*
X430981Y1413335D1*
X429074Y1410343D1*
X427297Y1407351D1*
X425341Y1404359D1*
X423006Y1401367D1*
X420448Y1398375D1*
X417986Y1395383D1*
X415796Y1392391D1*
X413718Y1389399D1*
X411597Y1386407D1*
X459469Y1431287D2*
X456721Y1428295D1*
X453326Y1425303D1*
X449590Y1422311D1*
X446112Y1419319D1*
X443261Y1416327D1*
X440745Y1413335D1*
X438244Y1410343D1*
X435866Y1407351D1*
X433801Y1404359D1*
X432014Y1401367D1*
X430383Y1398375D1*
X428825Y1395383D1*
X427228Y1392391D1*
X425475Y1389399D1*
X423565Y1386407D1*
X426557Y1383415D1*
X315853Y1422311D2*
Y1419319D1*
X331275Y1416327D1*
X342001Y1413335D1*
X348907Y1410343D1*
X353634Y1407351D1*
X357317Y1404359D1*
X360462Y1401367D1*
X363087Y1398375D1*
X365090Y1395383D1*
X366717Y1392391D1*
X351907Y1389399D1*
X340358Y1386407D1*
X332386Y1383415D1*
X327226Y1380423D1*
X323925Y1377431D1*
X321743Y1374439D1*
X320107Y1371447D1*
X319933Y1368455D1*
X320440Y1365463D1*
X321565Y1362471D1*
X323379Y1359479D1*
X325814Y1356487D1*
X331413Y1353495D1*
X340124Y1350503D1*
X352452Y1347511D1*
X366717Y1344519D1*
X365106Y1341527D1*
X362974Y1338535D1*
X360416Y1335543D1*
X357617Y1332551D1*
X354598Y1329559D1*
X350610Y1326567D1*
X343467Y1323575D1*
X331274Y1320583D1*
X315853Y1317591D1*
Y1314599D1*
X345773Y1422311D2*
X350158Y1419319D1*
X354114Y1416327D1*
X357923Y1413335D1*
X361824Y1410343D1*
X365650Y1407351D1*
X369088Y1404359D1*
X371987Y1401367D1*
X374381Y1398375D1*
X376543Y1395383D1*
X378536Y1392391D1*
X380053Y1389399D1*
X381002Y1386407D1*
X381677Y1383415D1*
X471437Y1395383D2*
X469837Y1392391D1*
X467770Y1389399D1*
X465453Y1386407D1*
X477421Y1395383D2*
X482695Y1392391D1*
X486983Y1389399D1*
X490022Y1386407D1*
X492381Y1383415D1*
X438525Y1386407D2*
X435533Y1383415D1*
X450493Y1386407D2*
X474429Y1389399D2*
X473879Y1386407D1*
X472829Y1383415D1*
X471437Y1380423D1*
X473841Y1377431D1*
X475591Y1374439D1*
X476581Y1371447D1*
X476950Y1368455D1*
X476932Y1365463D1*
X475610Y1362471D1*
X473678Y1359479D1*
X471437Y1356487D1*
X473027Y1353495D1*
X474429Y1350503D1*
X471437Y1389399D2*
X480413Y1386407D1*
X489389Y1383415D1*
X381677Y1356487D2*
X381551Y1353495D1*
X381063Y1350503D1*
X379953Y1347511D1*
X378352Y1344519D1*
X376565Y1341527D1*
X374539Y1338535D1*
X372048Y1335543D1*
X368983Y1332551D1*
X365413Y1329559D1*
X361698Y1326567D1*
X358092Y1323575D1*
X354367Y1320583D1*
X350223Y1317591D1*
X345773Y1314599D1*
X384669Y1356487D2*
X389489Y1353495D1*
X393094Y1350503D1*
X395479Y1347511D1*
X397167Y1344519D1*
X398355Y1341527D1*
X399044Y1338535D1*
X399384Y1335543D1*
X399534Y1332551D1*
X399594Y1329559D1*
X399605Y1326567D1*
X399508Y1323575D1*
X399130Y1320583D1*
X398426Y1317591D1*
X397764Y1314599D1*
X397626Y1311607D1*
X398089Y1308615D1*
X398848Y1305623D1*
X399629Y1302631D1*
X429549Y1356487D2*
X426557Y1353495D1*
X423565Y1350503D1*
X425420Y1347511D1*
X427127Y1344519D1*
X428729Y1341527D1*
X430279Y1338535D1*
X431901Y1335543D1*
X433782Y1332551D1*
X436000Y1329559D1*
X438285Y1326567D1*
X440516Y1323575D1*
X443073Y1320583D1*
X446330Y1317591D1*
X450073Y1314599D1*
X453738Y1311607D1*
X456836Y1308615D1*
X459469Y1305623D1*
X432541Y1356487D2*
X435533Y1353495D1*
X438525Y1350503D1*
X489389Y1353495D2*
X480413Y1350503D1*
X492381Y1353495D2*
X490183Y1350503D1*
X486822Y1347511D1*
X482366Y1344519D1*
X477421Y1341527D1*
X405613Y1353495D2*
X406075Y1350503D1*
X406817Y1347511D1*
X407592Y1344519D1*
X408116Y1341527D1*
X408382Y1338535D1*
X408404Y1335543D1*
X408075Y1332551D1*
X407367Y1329559D1*
X406502Y1326567D1*
X405602Y1323575D1*
X404609Y1320583D1*
X403715Y1317591D1*
X403141Y1314599D1*
X402843Y1311607D1*
X402709Y1308615D1*
X402652Y1305623D1*
X402621Y1302631D1*
X408605Y1353495D2*
X411135Y1350503D1*
X413385Y1347511D1*
X415602Y1344519D1*
X418059Y1341527D1*
X420667Y1338535D1*
X423139Y1335543D1*
X425257Y1332551D1*
X427080Y1329559D1*
X428826Y1326567D1*
X430783Y1323575D1*
X433231Y1320583D1*
X436285Y1317591D1*
X439961Y1314599D1*
X444130Y1311607D1*
X448689Y1308615D1*
X453485Y1305623D1*
Y1353495D2*
X450493Y1350503D1*
X462461Y1353495D2*
X465330Y1350503D1*
X467858Y1347511D1*
X469826Y1344519D1*
X471437Y1341527D1*
X484804Y626095D2*
D37*
X486705Y629898D1*
X490552Y633745D1*
X494354Y635646D1*
X502004D1*
X505850Y633745D1*
X509653Y629898D1*
X511598Y626095D1*
X513500Y620347D1*
Y610752D1*
X511598Y605049D1*
X509653Y601202D1*
X505850Y597399D1*
X502004Y595454D1*
X494354D1*
X490552Y597399D1*
X486705Y601202D1*
X484804Y605049D1*
X472452Y627952D2*
X468606Y629898D1*
X462858Y635602D1*
Y595454D1*
M02*
