M48
INCH
T01C0.0157
T02C0.0354
T03C0.0409
%
T01
X+006154Y+009420
X+006828Y+009824
X+006421Y+008142
X+005531Y+008034
X+007651Y+007570
X+008543Y+008920
X+008255Y+011168
X+008856Y+012230
X+004870Y+011732
X+004580Y+011101
X+004282Y+015240
X+006345Y+017245
X+006720Y+017274
X+006786Y+018244
X+006394Y+018238
X+006415Y+019196
X+006803Y+019209
T02
X+005096Y+020277
X+005096Y+019277
X+005096Y+018277
X+005096Y+017277
X+005096Y+016277
X+005096Y+015277
X+005096Y+014277
X+005096Y+013277
X+008096Y+013277
X+008096Y+014277
X+008096Y+015277
X+008096Y+016277
X+008096Y+017277
X+008096Y+018277
X+008096Y+019277
X+008096Y+020277
T03
X+004580Y+005373
X+005580Y+005373
X+006580Y+005373
X+007580Y+005373
X+008580Y+005373
T00
M30
