G04 DipTrace 3.0.0.1*
G04 Top.gbr*
%MOIN*%
G04 #@! TF.FileFunction,Copper,L1,Top*
G04 #@! TF.Part,Single*
G04 #@! TA.AperFunction,Conductor*
%ADD10C,0.01*%
G04 #@! TA.AperFunction,CopperBalancing*
%ADD14C,0.025*%
G04 #@! TA.AperFunction,Conductor*
%ADD15C,0.02*%
%ADD16C,0.014*%
%ADD18C,0.007*%
G04 #@! TA.AperFunction,ComponentPad*
%ADD19C,0.059055*%
%ADD21R,0.07874X0.023622*%
G04 #@! TA.AperFunction,ComponentPad*
%ADD22C,0.074803*%
G04 #@! TA.AperFunction,ViaPad*
%ADD23C,0.031496*%
%FSLAX26Y26*%
G04*
G70*
G90*
G75*
G01*
G04 Top*
%LPD*%
X553150Y941995D2*
D16*
X615355D1*
X553150Y841995D2*
D10*
Y803412D1*
X458005Y537271D2*
D14*
Y607087D1*
X493963Y643045D1*
X870079D1*
X893570Y666536D1*
Y1155643D1*
X857218Y1191995D1*
X765748D1*
X509580Y1427691D2*
D15*
X444620D1*
X420604Y1403675D1*
Y697507D1*
X458005Y660105D1*
Y607087D1*
X682809Y982415D2*
D18*
X660368D1*
X652100Y990683D1*
X554462D1*
X553150Y991995D1*
X765748D2*
X724147D1*
X650525Y1065617D1*
Y1253019D1*
X702100Y1304593D1*
Y1697376D1*
X672047Y1727428D1*
X553150Y1041995D2*
X600656D1*
X634252Y1075591D1*
Y1230709D1*
X605906Y1259055D1*
Y1695932D1*
X634515Y1724541D1*
X765748Y1041995D2*
X731103D1*
X665748Y1107349D1*
Y1244751D1*
X718635Y1297638D1*
Y1784383D1*
X678609Y1824410D1*
X553150Y1091995D2*
X595538D1*
X619423Y1115879D1*
Y1219423D1*
X590945Y1247900D1*
Y1775328D1*
X639370Y1823753D1*
X765748Y1091995D2*
X722441D1*
X683465Y1130971D1*
Y1234383D1*
X736614Y1287533D1*
Y1864567D1*
X680315Y1920866D1*
X553150Y1141995D2*
X596588D1*
X604068Y1149475D1*
Y1212336D1*
X572572Y1243832D1*
Y1850656D1*
X641470Y1919554D1*
X809580Y2027691D2*
X787402D1*
X756168Y1996457D1*
Y1280971D1*
X702756Y1227559D1*
Y1150000D1*
X712074Y1140683D1*
X764436D1*
X765748Y1141995D1*
X553150Y1191995D2*
Y1984121D1*
X509580Y2027691D1*
X765092Y756956D2*
Y841339D1*
X765748Y841995D1*
X712730D1*
X682677Y811942D1*
Y787795D1*
X667848Y772966D1*
X516536D1*
X459187Y830315D1*
Y1108924D1*
X458005Y1110105D1*
X428215Y1524016D2*
X505906D1*
X509580Y1527691D1*
X642126Y814173D2*
Y872310D1*
X621260Y893176D1*
X554331D1*
X553150Y891995D1*
X498688D1*
X488058Y902625D1*
Y1172179D1*
X487008Y1173229D1*
X765748Y891995D2*
X854331D1*
X885565Y1222966D2*
Y1451706D1*
X809580Y1527691D1*
X765748Y941995D2*
X816929D1*
X824278Y949344D1*
Y1115617D1*
X825460Y1116798D1*
D23*
X615355Y941995D3*
X553150Y803412D3*
X682809Y982415D3*
X672047Y1727428D3*
X634515Y1724541D3*
X678609Y1824410D3*
X639370Y1823753D3*
X680315Y1920866D3*
X641470Y1919554D3*
X765092Y756956D3*
X458005Y1110105D3*
X428215Y1524016D3*
X642126Y814173D3*
X487008Y1173229D3*
X854331Y891995D3*
X885565Y1222966D3*
X825460Y1116798D3*
X433725Y2024246D2*
D14*
X451116D1*
X568003D2*
X739028D1*
X868003D2*
X885220D1*
X433725Y1999377D2*
X458755D1*
X581479D2*
X723794D1*
X860434D2*
X885220D1*
X433725Y1974508D2*
X476284D1*
X585630D2*
X723647D1*
X842856D2*
X885220D1*
X433725Y1949639D2*
X455532D1*
X585630D2*
X609292D1*
X713755D2*
X723675D1*
X863608D2*
X885220D1*
X433725Y1924771D2*
X451116D1*
X585630D2*
X597077D1*
X868052D2*
X885220D1*
X433725Y1899902D2*
X458413D1*
X860727D2*
X885220D1*
X433725Y1875033D2*
X477114D1*
X641880D2*
X681216D1*
X842026D2*
X885220D1*
X433725Y1850164D2*
X455776D1*
X863413D2*
X885220D1*
X433725Y1825296D2*
X451116D1*
X868052D2*
X885220D1*
X433725Y1800427D2*
X458120D1*
X861020D2*
X885220D1*
X433725Y1775558D2*
X477944D1*
X636118D2*
X682534D1*
X841196D2*
X885220D1*
X433725Y1750689D2*
X455971D1*
X863169D2*
X885220D1*
X433725Y1725820D2*
X451116D1*
X868100D2*
X885220D1*
X433725Y1700952D2*
X457827D1*
X861313D2*
X885220D1*
X433725Y1676083D2*
X478823D1*
X638413D2*
X669595D1*
X840317D2*
X885220D1*
X433725Y1651214D2*
X456216D1*
X638413D2*
X669595D1*
X862925D2*
X885220D1*
X433725Y1626345D2*
X451116D1*
X638413D2*
X669595D1*
X868100D2*
X885220D1*
X433725Y1601477D2*
X457583D1*
X638413D2*
X669595D1*
X861606D2*
X885220D1*
X433725Y1576608D2*
X479751D1*
X638413D2*
X669595D1*
X839389D2*
X885220D1*
X638413Y1551739D2*
X669595D1*
X862680D2*
X885220D1*
X638413Y1526870D2*
X669595D1*
X868100D2*
X885220D1*
X638413Y1502002D2*
X669595D1*
X433725Y1477133D2*
X480727D1*
X638413D2*
X669595D1*
X638413Y1452264D2*
X669595D1*
X638413Y1427395D2*
X669595D1*
X638413Y1402526D2*
X669595D1*
X638413Y1377658D2*
X669595D1*
X638413Y1352789D2*
X669595D1*
X638413Y1327920D2*
X669595D1*
X638413Y1303051D2*
X655630D1*
X459604Y1278183D2*
X480825D1*
X838315D2*
X853104D1*
X459604Y1253314D2*
X520669D1*
X773423D2*
X853042D1*
X459604Y1228445D2*
X484780D1*
X658335Y930020D2*
X697378D1*
X654233Y905151D2*
X697378D1*
X673569Y880282D2*
X697378D1*
X834116Y830545D2*
X852116D1*
X834116Y805676D2*
X852116D1*
X714341Y780807D2*
X727756D1*
X802475D2*
X852065D1*
X459604Y755939D2*
X488637D1*
X695737D2*
X720376D1*
X809848D2*
X852065D1*
X459604Y731070D2*
X729214D1*
X800962D2*
X852065D1*
X466050Y706201D2*
X852065D1*
X493247Y482382D2*
X522768D1*
X593247D2*
X622768D1*
X693247D2*
X722768D1*
X793247D2*
X822768D1*
X433725Y457513D2*
X885220D1*
X433725Y432645D2*
X885220D1*
X565435Y2023295D2*
X564231Y2015471D1*
X577420Y2001755D1*
X580866Y1995602D1*
X582781Y1988814D1*
X583150Y1984121D1*
Y1903701D1*
X599248Y1919758D1*
X599742Y1926163D1*
X601290Y1932609D1*
X603827Y1938734D1*
X607291Y1944387D1*
X611596Y1949428D1*
X616637Y1953733D1*
X622290Y1957197D1*
X628415Y1959734D1*
X634861Y1961282D1*
X641470Y1961802D1*
X648079Y1961282D1*
X654525Y1959734D1*
X659603Y1957680D1*
X667260Y1961047D1*
X673706Y1962594D1*
X680315Y1963114D1*
X686924Y1962594D1*
X693371Y1961047D1*
X699495Y1958510D1*
X705148Y1955046D1*
X710189Y1950740D1*
X714495Y1945699D1*
X717958Y1940047D1*
X720495Y1933922D1*
X722043Y1927475D1*
X722556Y1921061D1*
X726168Y1918471D1*
X726261Y1998811D1*
X727636Y2005727D1*
X730589Y2012132D1*
X734955Y2017670D1*
X754324Y2037040D1*
X756295Y2045004D1*
X757812Y2049115D1*
X561379Y2049114D1*
X564060Y2040770D1*
X565435Y2032086D1*
Y2023295D1*
X484316Y1977690D2*
X476648Y1982363D1*
X469963Y1988073D1*
X464253Y1994758D1*
X459659Y2002255D1*
X456295Y2010377D1*
X454242Y2018926D1*
X453553Y2027691D1*
X454242Y2036455D1*
X456295Y2045004D1*
X457812Y2049115D1*
X431203Y2049114D1*
X431201Y1566155D1*
X438078Y1565097D1*
X444383Y1563048D1*
X450290Y1560038D1*
X455653Y1556142D1*
X457947Y1554022D1*
X461809Y1556965D1*
X466977Y1564077D1*
X473193Y1570294D1*
X480306Y1575462D1*
X484144Y1577770D1*
X476648Y1582363D1*
X469963Y1588073D1*
X464253Y1594758D1*
X459659Y1602255D1*
X456295Y1610377D1*
X454242Y1618926D1*
X453553Y1627691D1*
X454242Y1636455D1*
X456295Y1645004D1*
X459659Y1653126D1*
X464253Y1660623D1*
X469963Y1667308D1*
X476648Y1673018D1*
X484316Y1677691D1*
X476648Y1682363D1*
X469963Y1688073D1*
X464253Y1694758D1*
X459659Y1702255D1*
X456295Y1710377D1*
X454242Y1718926D1*
X453553Y1727691D1*
X454242Y1736455D1*
X456295Y1745004D1*
X459659Y1753126D1*
X464253Y1760623D1*
X469963Y1767308D1*
X476648Y1773018D1*
X484316Y1777691D1*
X476648Y1782363D1*
X469963Y1788073D1*
X464253Y1794758D1*
X459659Y1802255D1*
X456295Y1810377D1*
X454242Y1818926D1*
X453553Y1827691D1*
X454242Y1836455D1*
X456295Y1845004D1*
X459659Y1853126D1*
X464253Y1860623D1*
X469963Y1867308D1*
X476648Y1873018D1*
X484316Y1877691D1*
X476648Y1882363D1*
X469963Y1888073D1*
X464253Y1894758D1*
X459659Y1902255D1*
X456295Y1910377D1*
X454242Y1918926D1*
X453553Y1927691D1*
X454242Y1936455D1*
X456295Y1945004D1*
X459659Y1953126D1*
X464253Y1960623D1*
X469963Y1967308D1*
X476648Y1973018D1*
X484316Y1977691D1*
Y1477690D2*
X476648Y1482363D1*
X469963Y1488073D1*
X464838Y1494016D1*
X455653Y1491890D1*
X450290Y1487994D1*
X444383Y1484984D1*
X438078Y1482935D1*
X431206Y1481885D1*
X431201Y1461663D1*
X438910Y1463741D1*
X444620Y1464191D1*
X467032D1*
X473193Y1470294D1*
X480306Y1475462D1*
X484316Y1477691D1*
X523139Y1273346D2*
X513976Y1271836D1*
X505184D1*
X496501Y1273211D1*
X488139Y1275928D1*
X480306Y1279919D1*
X473193Y1285087D1*
X466977Y1291304D1*
X461809Y1298416D1*
X457818Y1306250D1*
X457110Y1308168D1*
X457134Y1203102D1*
X462175Y1207408D1*
X467828Y1210872D1*
X473953Y1213409D1*
X480399Y1214956D1*
X487280Y1215466D1*
Y1230306D1*
X523168D1*
X523150Y1273294D1*
X855566Y1295744D2*
X849198Y1288073D1*
X842512Y1282363D1*
X835016Y1277770D1*
X826894Y1274405D1*
X818345Y1272353D1*
X809580Y1271663D1*
X800816Y1272353D1*
X792267Y1274405D1*
X785908Y1276957D1*
X784700Y1271701D1*
X781747Y1265296D1*
X777381Y1259758D1*
X747930Y1230307D1*
X759647Y1230515D1*
X765748Y1230995D1*
X844117D1*
X846532Y1239134D1*
X849542Y1245041D1*
X853439Y1250404D1*
X855559Y1252697D1*
X855564Y1295671D1*
X865435Y1523295D2*
X864231Y1515471D1*
X887728Y1491969D1*
X887697Y2049121D1*
X861379Y2049114D1*
X864060Y2040770D1*
X865435Y2032086D1*
Y2023295D1*
X864060Y2014611D1*
X861343Y2006250D1*
X857352Y1998416D1*
X852184Y1991304D1*
X845967Y1985087D1*
X838855Y1979919D1*
X835016Y1977611D1*
X842512Y1973018D1*
X849198Y1967308D1*
X854908Y1960623D1*
X859501Y1953126D1*
X862866Y1945004D1*
X864918Y1936455D1*
X865608Y1927691D1*
X864918Y1918926D1*
X862866Y1910377D1*
X859501Y1902255D1*
X854908Y1894758D1*
X849198Y1888073D1*
X842512Y1882363D1*
X834845Y1877690D1*
X842512Y1873018D1*
X849198Y1867308D1*
X854908Y1860623D1*
X859501Y1853126D1*
X862866Y1845004D1*
X864918Y1836455D1*
X865608Y1827691D1*
X864918Y1818926D1*
X862866Y1810377D1*
X859501Y1802255D1*
X854908Y1794758D1*
X849198Y1788073D1*
X842512Y1782363D1*
X834845Y1777690D1*
X842512Y1773018D1*
X849198Y1767308D1*
X854908Y1760623D1*
X859501Y1753126D1*
X862866Y1745004D1*
X864918Y1736455D1*
X865608Y1727691D1*
X864918Y1718926D1*
X862866Y1710377D1*
X859501Y1702255D1*
X854908Y1694758D1*
X849198Y1688073D1*
X842512Y1682363D1*
X834845Y1677690D1*
X842512Y1673018D1*
X849198Y1667308D1*
X854908Y1660623D1*
X859501Y1653126D1*
X862866Y1645004D1*
X864918Y1636455D1*
X865608Y1627691D1*
X864918Y1618926D1*
X862866Y1610377D1*
X859501Y1602255D1*
X854908Y1594758D1*
X849198Y1588073D1*
X842512Y1582363D1*
X834845Y1577690D1*
X842512Y1573018D1*
X849198Y1567308D1*
X854908Y1560623D1*
X859501Y1553126D1*
X862866Y1545004D1*
X864918Y1536455D1*
X865608Y1527691D1*
X865435Y1523295D1*
X831618Y853695D2*
Y803684D1*
X795046D1*
X795092Y786700D1*
X799271Y781788D1*
X802735Y776136D1*
X805272Y770011D1*
X806820Y763565D1*
X807340Y756956D1*
X806820Y750347D1*
X805272Y743900D1*
X802735Y737775D1*
X799271Y732123D1*
X794966Y727082D1*
X789925Y722776D1*
X784272Y719312D1*
X778147Y716775D1*
X771701Y715228D1*
X765092Y714708D1*
X758483Y715228D1*
X752037Y716775D1*
X745912Y719312D1*
X740259Y722776D1*
X735218Y727082D1*
X730913Y732123D1*
X727449Y737775D1*
X724912Y743900D1*
X723364Y750347D1*
X722844Y756956D1*
X723364Y763565D1*
X724912Y770011D1*
X727449Y776136D1*
X730913Y781788D1*
X735086Y786687D1*
X735092Y803684D1*
X716824D1*
X712677Y799442D1*
X712308Y783102D1*
X710394Y776315D1*
X706948Y770162D1*
X703891Y766582D1*
X687331Y750154D1*
X681468Y746236D1*
X674851Y743795D1*
X667848Y742966D1*
X514182Y743059D1*
X507265Y744434D1*
X500861Y747387D1*
X495322Y751753D1*
X457101Y789974D1*
X457104Y712610D1*
X485760Y683810D1*
X487862Y681565D1*
X493975Y682045D1*
X485760Y683810D1*
X487535Y681559D1*
X494110Y682045D1*
X853973D1*
X854570Y691536D1*
X854331Y849747D1*
X847722Y850267D1*
X841276Y851815D1*
X835151Y854352D1*
X832256Y855973D1*
X699878Y869065D2*
Y943772D1*
X692671Y941334D1*
X686123Y940297D1*
X679494D1*
X672946Y941334D1*
X666641Y943383D1*
X660734Y946393D1*
X657082Y948735D1*
X657603Y942126D1*
X657082Y935517D1*
X655535Y929071D1*
X652998Y922946D1*
X649534Y917293D1*
X644914Y911962D1*
X664938Y891793D1*
X668856Y885930D1*
X671297Y879313D1*
X672126Y872310D1*
Y843941D1*
X693246Y864807D1*
X699118Y868729D1*
X507968Y497509D2*
X503191Y492085D1*
X495566Y485573D1*
X487016Y480334D1*
X477752Y476497D1*
X468002Y474156D1*
X458005Y473369D1*
X448009Y474156D1*
X438259Y476497D1*
X431184Y479325D1*
X431201Y431194D1*
X887695Y431201D1*
X887697Y480664D1*
X877752Y476497D1*
X868002Y474156D1*
X858005Y473369D1*
X848009Y474156D1*
X838259Y476497D1*
X828995Y480334D1*
X820445Y485573D1*
X812820Y492085D1*
X808043Y497509D1*
X803191Y492085D1*
X795566Y485573D1*
X787016Y480334D1*
X777752Y476497D1*
X768002Y474156D1*
X758005Y473369D1*
X748009Y474156D1*
X738259Y476497D1*
X728995Y480334D1*
X720445Y485573D1*
X712820Y492085D1*
X708043Y497509D1*
X703191Y492085D1*
X695566Y485573D1*
X687016Y480334D1*
X677752Y476497D1*
X668002Y474156D1*
X658005Y473369D1*
X648009Y474156D1*
X638259Y476497D1*
X628995Y480334D1*
X620445Y485573D1*
X612820Y492085D1*
X608043Y497509D1*
X603191Y492085D1*
X595566Y485573D1*
X587016Y480334D1*
X577752Y476497D1*
X568002Y474156D1*
X558005Y473369D1*
X548009Y474156D1*
X538259Y476497D1*
X528995Y480334D1*
X520445Y485573D1*
X512820Y492085D1*
X508043Y497509D1*
X496997Y587840D2*
X503191Y582456D1*
X507968Y577032D1*
X512820Y582456D1*
X520445Y588968D1*
X528995Y594207D1*
X538259Y598045D1*
X548009Y600385D1*
X558005Y601172D1*
X568002Y600385D1*
X577752Y598045D1*
X587016Y594207D1*
X595566Y588968D1*
X603191Y582456D1*
X607968Y577032D1*
X612820Y582456D1*
X620445Y588968D1*
X628995Y594207D1*
X638259Y598045D1*
X648009Y600385D1*
X658005Y601172D1*
X668002Y600385D1*
X677752Y598045D1*
X687016Y594207D1*
X695566Y588968D1*
X703191Y582456D1*
X707968Y577032D1*
X712820Y582456D1*
X720445Y588968D1*
X728995Y594207D1*
X738259Y598045D1*
X748009Y600385D1*
X758005Y601172D1*
X768002Y600385D1*
X777752Y598045D1*
X787016Y594207D1*
X795566Y588968D1*
X803191Y582456D1*
X807968Y577032D1*
X812820Y582456D1*
X820445Y588968D1*
X828995Y594207D1*
X838259Y598045D1*
X848009Y600385D1*
X858005Y601172D1*
X868002Y600385D1*
X877752Y598045D1*
X887683Y593834D1*
X887697Y608203D1*
X882131Y605954D1*
X876180Y604525D1*
X870079Y604045D1*
X510069D1*
X496992Y590919D1*
X635906Y1280826D2*
X672100Y1317093D1*
X671875Y1685174D1*
X665438Y1685700D1*
X658992Y1687248D1*
X656184Y1688284D1*
X650682Y1685509D1*
X644377Y1683460D1*
X635900Y1682347D1*
X635906Y1280844D1*
X650391Y1763685D2*
X655880Y1766460D1*
X662185Y1768509D1*
X668733Y1769546D1*
X675362D1*
X681910Y1768509D1*
X688627Y1766270D1*
X688583Y1772009D1*
X678398Y1782194D1*
X672000Y1782682D1*
X665554Y1784229D1*
X659629Y1786674D1*
X652426Y1783573D1*
X645979Y1782026D1*
X639565Y1781513D1*
X623329Y1765286D1*
X631200Y1766659D1*
X637829D1*
X644377Y1765622D1*
X650378Y1763685D1*
X658400Y1861477D2*
X665554Y1864590D1*
X672000Y1866138D1*
X678609Y1866658D1*
X685218Y1866138D1*
X691664Y1864590D1*
X695777Y1862981D1*
X680149Y1878606D1*
X673706Y1879138D1*
X667260Y1880686D1*
X662182Y1882740D1*
X654525Y1879374D1*
X648079Y1877826D1*
X641664Y1877314D1*
X629508Y1864834D1*
X636056Y1865871D1*
X642685D1*
X649233Y1864834D1*
X655538Y1862786D1*
X658350Y1861489D1*
D19*
X509580Y2027691D3*
Y1927691D3*
Y1827691D3*
Y1727691D3*
Y1627691D3*
Y1527691D3*
Y1427691D3*
Y1327691D3*
X809580D3*
Y1427691D3*
Y1527691D3*
Y1627691D3*
Y1727691D3*
Y1827691D3*
Y1927691D3*
Y2027691D3*
D21*
X553150Y1191995D3*
Y1141995D3*
Y1091995D3*
Y1041995D3*
Y991995D3*
Y941995D3*
Y891995D3*
Y841995D3*
X765748D3*
Y891995D3*
Y941995D3*
Y991995D3*
Y1041995D3*
Y1091995D3*
Y1141995D3*
Y1191995D3*
D22*
X458005Y537271D3*
X558005D3*
X658005D3*
X758005D3*
X858005D3*
M02*
