G04 DipTrace 3.0.0.1*
G04 TopDimension.gbr*
%MOIN*%
G04 #@! TF.FileFunction,Drawing,Top*
G04 #@! TF.Part,Single*
%ADD13C,0.0015*%
%ADD37C,0.006176*%
%FSLAX26Y26*%
G04*
G70*
G90*
G75*
G01*
G04 TopDimension*
%LPD*%
X509580Y2027691D2*
D13*
Y2242651D1*
X393701Y2086614D2*
Y2242651D1*
X451641Y2222966D2*
X470210D1*
G36*
X509580D2*
X470210Y2215092D1*
Y2230840D1*
X509580Y2222966D1*
G37*
X451641D2*
D13*
X433071D1*
G36*
X393701D2*
X433071Y2230840D1*
Y2215092D1*
X393701Y2222966D1*
G37*
X673080D2*
D13*
X509580D1*
X809580Y2027691D2*
Y2253281D1*
X925197Y2086614D2*
Y2253281D1*
X867389Y2233596D2*
X848950D1*
G36*
X809580D2*
X848950Y2241470D1*
Y2225722D1*
X809580Y2233596D1*
G37*
X867389D2*
D13*
X885827D1*
G36*
X925197D2*
X885827Y2225722D1*
Y2241470D1*
X925197Y2233596D1*
G37*
X1088653D2*
D13*
X925197D1*
X513780Y1191995D2*
Y1250656D1*
X393701Y393701D2*
Y1250656D1*
X453740Y1230971D2*
X474410D1*
G36*
X513780D2*
X474410Y1223097D1*
Y1238845D1*
X513780Y1230971D1*
G37*
X453740D2*
D13*
X433071D1*
G36*
X393701D2*
X433071Y1238845D1*
Y1223097D1*
X393701Y1230971D1*
G37*
X679181D2*
D13*
X513780D1*
X805118Y1191995D2*
Y1275460D1*
X925197Y393701D2*
Y1275460D1*
X865158Y1255774D2*
X844488D1*
G36*
X805118D2*
X844488Y1263649D1*
Y1247900D1*
X805118Y1255774D1*
G37*
X865158D2*
D13*
X885827D1*
G36*
X925197D2*
X885827Y1247900D1*
Y1263649D1*
X925197Y1255774D1*
G37*
X1090598D2*
D13*
X925197D1*
X558214Y2267675D2*
D37*
X562061Y2269621D1*
X567809Y2275325D1*
Y2235177D1*
X580160Y2267675D2*
X584007Y2269621D1*
X589755Y2275325D1*
Y2235177D1*
X625054Y2275325D2*
X605953D1*
X604052Y2258125D1*
X605953Y2260026D1*
X611701Y2261972D1*
X617405D1*
X623153Y2260026D1*
X627000Y2256223D1*
X628901Y2250475D1*
Y2246673D1*
X627000Y2240925D1*
X623153Y2237078D1*
X617405Y2235177D1*
X611701D1*
X605953Y2237078D1*
X604052Y2239024D1*
X602106Y2242826D1*
X643154Y2239024D2*
X641252Y2237078D1*
X643154Y2235177D1*
X645099Y2237078D1*
X643154Y2239024D1*
X682344Y2261972D2*
X680398Y2256223D1*
X676596Y2252377D1*
X670848Y2250475D1*
X668947D1*
X663199Y2252377D1*
X659396Y2256223D1*
X657450Y2261972D1*
Y2263873D1*
X659396Y2269621D1*
X663199Y2273423D1*
X668947Y2275325D1*
X670848D1*
X676596Y2273423D1*
X680398Y2269621D1*
X682344Y2261972D1*
Y2252377D1*
X680398Y2242826D1*
X676596Y2237078D1*
X670848Y2235177D1*
X667045D1*
X661297Y2237078D1*
X659396Y2240925D1*
X973831Y2278305D2*
X977677Y2280251D1*
X983425Y2285955D1*
Y2245807D1*
X995777Y2278305D2*
X999624Y2280251D1*
X1005372Y2285955D1*
Y2245807D1*
X1040671Y2285955D2*
X1021570D1*
X1019669Y2268755D1*
X1021570Y2270656D1*
X1027318Y2272601D1*
X1033022D1*
X1038770Y2270656D1*
X1042616Y2266853D1*
X1044518Y2261105D1*
Y2257303D1*
X1042616Y2251555D1*
X1038770Y2247708D1*
X1033022Y2245807D1*
X1027318D1*
X1021570Y2247708D1*
X1019669Y2249654D1*
X1017723Y2253456D1*
X1058770Y2249654D2*
X1056869Y2247708D1*
X1058770Y2245807D1*
X1060716Y2247708D1*
X1058770Y2249654D1*
X1096015Y2280251D2*
X1094114Y2284053D1*
X1088366Y2285955D1*
X1084563D1*
X1078815Y2284053D1*
X1074969Y2278305D1*
X1073067Y2268755D1*
Y2259204D1*
X1074969Y2251555D1*
X1078815Y2247708D1*
X1084563Y2245807D1*
X1086465D1*
X1092168Y2247708D1*
X1096015Y2251555D1*
X1097916Y2257303D1*
Y2259204D1*
X1096015Y2264952D1*
X1092168Y2268755D1*
X1086465Y2270656D1*
X1084563D1*
X1078815Y2268755D1*
X1074969Y2264952D1*
X1073067Y2259204D1*
X562413Y1275681D2*
X566260Y1277626D1*
X572008Y1283330D1*
Y1243182D1*
X586305Y1273779D2*
Y1275681D1*
X588206Y1279527D1*
X590108Y1281429D1*
X593954Y1283330D1*
X601604D1*
X605406Y1281429D1*
X607307Y1279527D1*
X609253Y1275681D1*
Y1271878D1*
X607307Y1268031D1*
X603505Y1262327D1*
X584360Y1243182D1*
X611154D1*
X635002Y1283330D2*
X629254Y1281429D1*
X625407Y1275681D1*
X623506Y1266130D1*
Y1260382D1*
X625407Y1250831D1*
X629254Y1245083D1*
X635002Y1243182D1*
X638804D1*
X644552Y1245083D1*
X648355Y1250831D1*
X650300Y1260382D1*
Y1266130D1*
X648355Y1275681D1*
X644552Y1281429D1*
X638804Y1283330D1*
X635002D1*
X648355Y1275681D2*
X625407Y1250831D1*
X664553Y1247029D2*
X662652Y1245083D1*
X664553Y1243182D1*
X666498Y1245083D1*
X664553Y1247029D1*
X678850Y1275681D2*
X682697Y1277626D1*
X688445Y1283330D1*
Y1243182D1*
X973831Y1300484D2*
X977677Y1302429D1*
X983425Y1308133D1*
Y1267985D1*
X997722Y1298582D2*
Y1300484D1*
X999624Y1304330D1*
X1001525Y1306232D1*
X1005372Y1308133D1*
X1013021D1*
X1016824Y1306232D1*
X1018725Y1304330D1*
X1020670Y1300484D1*
Y1296681D1*
X1018725Y1292834D1*
X1014922Y1287131D1*
X995777Y1267985D1*
X1022572D1*
X1046419Y1308133D2*
X1040671Y1306232D1*
X1036824Y1300484D1*
X1034923Y1290933D1*
Y1285185D1*
X1036824Y1275635D1*
X1040671Y1269887D1*
X1046419Y1267985D1*
X1050222D1*
X1055970Y1269887D1*
X1059772Y1275635D1*
X1061718Y1285185D1*
Y1290933D1*
X1059772Y1300484D1*
X1055970Y1306232D1*
X1050222Y1308133D1*
X1046419D1*
X1059772Y1300484D2*
X1036824Y1275635D1*
X1075970Y1271832D2*
X1074069Y1269887D1*
X1075970Y1267985D1*
X1077916Y1269887D1*
X1075970Y1271832D1*
X1090267Y1300484D2*
X1094114Y1302429D1*
X1099862Y1308133D1*
Y1267985D1*
M02*
