G04 DipTrace 3.0.0.1*
G04 TopSilk.gbr*
%MOIN*%
G04 #@! TF.FileFunction,Legend,Top*
G04 #@! TF.Part,Single*
%ADD10C,0.01*%
%ADD37C,0.006176*%
%ADD38C,0.004632*%
%ADD39C,0.003088*%
%ADD40C,0.009264*%
%ADD41C,0.00772*%
%FSLAX26Y26*%
G04*
G70*
G90*
G75*
G01*
G04 TopSilk*
%LPD*%
X608261Y1213830D2*
D10*
Y820160D1*
X710637Y1213830D2*
Y820160D1*
X608261D2*
X710637D1*
X608261Y1213830D2*
X639755D1*
X679144D2*
X710637D1*
X639755D2*
G03X679144Y1213830I19694J11D01*
G01*
X406037Y663247D2*
X911942D1*
Y403401D1*
X406037D1*
Y663247D1*
G36*
X409983Y474265D2*
X907996D1*
Y405383D1*
X409983D1*
Y474265D1*
G37*
X636943Y992625D2*
D37*
X665639D1*
X671387Y994526D1*
X675190Y998373D1*
X677135Y1004121D1*
Y1007923D1*
X675190Y1013671D1*
X671387Y1017518D1*
X665639Y1019419D1*
X636943D1*
X644637Y1031771D2*
X642691Y1035617D1*
X636988Y1041365D1*
X677135D1*
X742042Y1316059D2*
D38*
X743467Y1313207D1*
X746353Y1310322D1*
X749204Y1308896D1*
X754941D1*
X757826Y1310322D1*
X760678Y1313207D1*
X762138Y1316059D1*
X763563Y1320370D1*
Y1327566D1*
X762138Y1331844D1*
X760678Y1334729D1*
X757827Y1337581D1*
X754941Y1339040D1*
X749205D1*
X746353Y1337581D1*
X743468Y1334729D1*
X742042Y1331844D1*
Y1327566D1*
X749204D1*
X712682Y1308896D2*
Y1339040D1*
X732778Y1308896D1*
Y1339040D1*
X703418Y1308896D2*
X703419Y1339040D1*
X693371D1*
X689060Y1337581D1*
X686174Y1334729D1*
X684748Y1331844D1*
X683323Y1327566D1*
Y1320370D1*
X684748Y1316059D1*
X686174Y1313207D1*
X689059Y1310322D1*
X693371Y1308896D1*
X703418D1*
X626818Y1314090D2*
X628244Y1311238D1*
X631129Y1308353D1*
X633981Y1306927D1*
X639718D1*
X642603Y1308353D1*
X645455Y1311238D1*
X646914Y1314090D1*
X648340Y1318401D1*
Y1325597D1*
X646914Y1329875D1*
X645455Y1332760D1*
X642603Y1335612D1*
X639718Y1337071D1*
X633981D1*
X631130Y1335612D1*
X628244Y1332760D1*
X626818Y1329875D1*
Y1325598D1*
X633981D1*
X597459Y1306927D2*
Y1337071D1*
X617555Y1306927D1*
Y1337071D1*
X588195Y1306927D2*
Y1337071D1*
X578147D1*
X573836Y1335612D1*
X570951Y1332760D1*
X569525Y1329875D1*
X568099Y1325597D1*
Y1318401D1*
X569525Y1314090D1*
X570951Y1311238D1*
X573836Y1308353D1*
X578147Y1306927D1*
X588195D1*
X638104Y1410208D2*
X626630Y1440352D1*
X615156Y1410208D1*
X605893D2*
Y1440352D1*
X595845D1*
X591534Y1438893D1*
X588649Y1436041D1*
X587223Y1433156D1*
X585797Y1428878D1*
Y1421682D1*
X587223Y1417371D1*
X588649Y1414519D1*
X591534Y1411634D1*
X595845Y1410208D1*
X605893D1*
X576533D2*
Y1440352D1*
X566485D1*
X562174Y1438893D1*
X559289Y1436041D1*
X557863Y1433156D1*
X556437Y1428878D1*
Y1421682D1*
X557863Y1417371D1*
X559289Y1414519D1*
X562174Y1411634D1*
X566485Y1410208D1*
X576533D1*
X737037Y1414519D2*
X739889Y1411634D1*
X744200Y1410208D1*
X749937D1*
X754248Y1411634D1*
X757133Y1414519D1*
Y1417371D1*
X755674Y1420256D1*
X754248Y1421682D1*
X751396Y1423108D1*
X742774Y1425993D1*
X739889Y1427419D1*
X738463Y1428878D1*
X737037Y1431730D1*
Y1436041D1*
X739889Y1438893D1*
X744200Y1440352D1*
X749937D1*
X754248Y1438893D1*
X757133Y1436041D1*
X704826Y1440352D2*
Y1410208D1*
X716300Y1440352D1*
X727774Y1410208D1*
Y1440352D1*
X695562Y1425993D2*
X682629D1*
X678351Y1424567D1*
X676892Y1423108D1*
X675466Y1420256D1*
Y1415945D1*
X676892Y1413093D1*
X678351Y1411634D1*
X682629Y1410208D1*
X695562D1*
Y1440352D1*
X769854Y1527018D2*
D39*
X761232D1*
X758380Y1526068D1*
X757407Y1525095D1*
X756456Y1523194D1*
Y1520320D1*
X757407Y1518418D1*
X758380Y1517446D1*
X761232Y1516495D1*
X769854D1*
Y1536591D1*
X750281Y1520342D2*
X748357Y1519369D1*
X745483Y1516517D1*
Y1536591D1*
X732609Y1511255D2*
X734532Y1513157D1*
X736434Y1516031D1*
X738357Y1519855D1*
X739308Y1524653D1*
Y1528477D1*
X738357Y1533253D1*
X736434Y1537077D1*
X734533Y1539951D1*
X732609Y1541853D1*
X725461Y1521292D2*
Y1520342D1*
X724510Y1518418D1*
X723559Y1517468D1*
X721636Y1516517D1*
X717811D1*
X715910Y1517468D1*
X714959Y1518418D1*
X713987Y1520342D1*
Y1522243D1*
X714959Y1524166D1*
X716861Y1527018D1*
X726433Y1536591D1*
X713036D1*
X706860Y1511255D2*
X704937Y1513157D1*
X703036Y1516031D1*
X701112Y1519855D1*
X700162Y1524653D1*
Y1528477D1*
X701112Y1533253D1*
X703036Y1537077D1*
X704937Y1539951D1*
X706860Y1541853D1*
X770247Y1623606D2*
X761625D1*
X758774Y1622656D1*
X757801Y1621683D1*
X756850Y1619782D1*
Y1616908D1*
X757801Y1615006D1*
X758774Y1614034D1*
X761625Y1613083D1*
X770247D1*
Y1633179D1*
X750675Y1616930D2*
X748751Y1615957D1*
X745877Y1613105D1*
Y1633179D1*
X733003Y1607843D2*
X734926Y1609745D1*
X736827Y1612619D1*
X738751Y1616443D1*
X739701Y1621241D1*
Y1625065D1*
X738751Y1629841D1*
X736827Y1633665D1*
X734926Y1636539D1*
X733003Y1638441D1*
X717254Y1633179D2*
Y1613105D1*
X726827Y1626480D1*
X712479D1*
X706303Y1607843D2*
X704380Y1609745D1*
X702479Y1612619D1*
X700555Y1616443D1*
X699605Y1621241D1*
Y1625065D1*
X700555Y1629841D1*
X702479Y1633665D1*
X704380Y1636539D1*
X706303Y1638441D1*
X769716Y1724353D2*
X761094D1*
X758242Y1723402D1*
X757269Y1722430D1*
X756319Y1720528D1*
Y1717654D1*
X757269Y1715753D1*
X758242Y1714780D1*
X761094Y1713830D1*
X769716D1*
Y1733926D1*
X744395Y1713852D2*
X747269Y1714802D1*
X749192Y1717676D1*
X750143Y1722452D1*
Y1725326D1*
X749192Y1730101D1*
X747269Y1732975D1*
X744395Y1733926D1*
X742494D1*
X739620Y1732975D1*
X737718Y1730101D1*
X736746Y1725326D1*
Y1722452D1*
X737718Y1717676D1*
X739620Y1714802D1*
X742494Y1713852D1*
X744395D1*
X737718Y1717676D2*
X749192Y1730101D1*
X723871Y1708590D2*
X725795Y1710491D1*
X727696Y1713365D1*
X729619Y1717190D1*
X730570Y1721987D1*
Y1725812D1*
X729619Y1730587D1*
X727696Y1734412D1*
X725795Y1737286D1*
X723871Y1739187D1*
X711948Y1713852D2*
X714822Y1714802D1*
X716745Y1717676D1*
X717696Y1722452D1*
Y1725326D1*
X716745Y1730101D1*
X714822Y1732975D1*
X711948Y1733926D1*
X710046D1*
X707172Y1732975D1*
X705271Y1730101D1*
X704298Y1725326D1*
Y1722452D1*
X705271Y1717676D1*
X707172Y1714802D1*
X710046Y1713852D1*
X711948D1*
X705271Y1717676D2*
X716745Y1730101D1*
X698123Y1708590D2*
X696199Y1710491D1*
X694298Y1713365D1*
X692375Y1717190D1*
X691424Y1721987D1*
Y1725812D1*
X692375Y1730587D1*
X694298Y1734412D1*
X696199Y1737286D1*
X698123Y1739187D1*
X772209Y1827634D2*
X763587D1*
X760736Y1826683D1*
X759763Y1825710D1*
X758812Y1823809D1*
Y1820935D1*
X759763Y1819034D1*
X760736Y1818061D1*
X763587Y1817110D1*
X772209D1*
Y1837206D1*
X746888Y1817133D2*
X749762Y1818083D1*
X751686Y1820957D1*
X752636Y1825733D1*
Y1828607D1*
X751686Y1833382D1*
X749763Y1836256D1*
X746888Y1837206D1*
X744987D1*
X742113Y1836256D1*
X740212Y1833382D1*
X739239Y1828607D1*
Y1825733D1*
X740212Y1820957D1*
X742113Y1818083D1*
X744987Y1817133D1*
X746888D1*
X740212Y1820957D2*
X751686Y1833382D1*
X726365Y1811871D2*
X728288Y1813772D1*
X730189Y1816646D1*
X732113Y1820471D1*
X733063Y1825268D1*
Y1829093D1*
X732113Y1833868D1*
X730189Y1837693D1*
X728288Y1840567D1*
X726365Y1842468D1*
X719216Y1821908D2*
Y1820957D1*
X718266Y1819034D1*
X717315Y1818083D1*
X715392Y1817133D1*
X711567D1*
X709666Y1818083D1*
X708715Y1819034D1*
X707742Y1820957D1*
Y1822859D1*
X708715Y1824782D1*
X710616Y1827634D1*
X720189Y1837206D1*
X706792D1*
X700616Y1811871D2*
X698693Y1813772D1*
X696791Y1816646D1*
X694868Y1820471D1*
X693917Y1825268D1*
Y1829093D1*
X694868Y1833868D1*
X696791Y1837693D1*
X698693Y1840567D1*
X700616Y1842468D1*
X776278Y1924615D2*
X767656D1*
X764804Y1923665D1*
X763831Y1922692D1*
X762880Y1920791D1*
Y1917917D1*
X763831Y1916016D1*
X764804Y1915043D1*
X767656Y1914092D1*
X776278D1*
Y1934188D1*
X750957Y1914114D2*
X753831Y1915065D1*
X755754Y1917939D1*
X756705Y1922714D1*
Y1925588D1*
X755754Y1930363D1*
X753831Y1933237D1*
X750957Y1934188D1*
X749055D1*
X746181Y1933237D1*
X744280Y1930363D1*
X743307Y1925588D1*
Y1922714D1*
X744280Y1917939D1*
X746181Y1915065D1*
X749055Y1914114D1*
X750957D1*
X744280Y1917939D2*
X755754Y1930363D1*
X730433Y1908853D2*
X732356Y1910754D1*
X734258Y1913628D1*
X736181Y1917453D1*
X737132Y1922250D1*
Y1926075D1*
X736181Y1930850D1*
X734258Y1934674D1*
X732356Y1937548D1*
X730433Y1939450D1*
X714685Y1934188D2*
Y1914114D1*
X724257Y1927489D1*
X709909D1*
X703734Y1908853D2*
X701810Y1910754D1*
X699909Y1913628D1*
X697986Y1917453D1*
X697035Y1922250D1*
Y1926075D1*
X697986Y1930850D1*
X699909Y1934674D1*
X701810Y1937548D1*
X703734Y1939450D1*
X770897Y2021728D2*
X762275D1*
X759423Y2020778D1*
X758450Y2019805D1*
X757500Y2017904D1*
Y2015030D1*
X758450Y2013128D1*
X759423Y2012156D1*
X762275Y2011205D1*
X770897D1*
Y2031301D1*
X745576Y2011227D2*
X748450Y2012178D1*
X750373Y2015052D1*
X751324Y2019827D1*
Y2022701D1*
X750374Y2027476D1*
X748450Y2030350D1*
X745576Y2031301D1*
X743675D1*
X740801Y2030350D1*
X738900Y2027476D1*
X737927Y2022701D1*
Y2019827D1*
X738900Y2015052D1*
X740801Y2012178D1*
X743675Y2011227D1*
X745576D1*
X738900Y2015052D2*
X750374Y2027476D1*
X725052Y2005965D2*
X726976Y2007867D1*
X728877Y2010741D1*
X730800Y2014565D1*
X731751Y2019363D1*
Y2023187D1*
X730801Y2027963D1*
X728877Y2031787D1*
X726976Y2034661D1*
X725052Y2036563D1*
X707403Y2014079D2*
X708353Y2012178D1*
X711227Y2011227D1*
X713129D1*
X716003Y2012178D1*
X717926Y2015052D1*
X718877Y2019827D1*
Y2024602D1*
X717926Y2028427D1*
X716003Y2030350D1*
X713129Y2031301D1*
X712178D1*
X709326Y2030350D1*
X707403Y2028427D1*
X706452Y2025553D1*
Y2024602D1*
X707403Y2021728D1*
X709326Y2019827D1*
X712178Y2018876D1*
X713129D1*
X716003Y2019827D1*
X717926Y2021728D1*
X718877Y2024602D1*
X700276Y2005965D2*
X698353Y2007867D1*
X696452Y2010741D1*
X694528Y2014565D1*
X693578Y2019363D1*
Y2023187D1*
X694528Y2027963D1*
X696452Y2031787D1*
X698353Y2034661D1*
X700277Y2036563D1*
X614467Y1525272D2*
X605845D1*
X602993Y1524321D1*
X602020Y1523348D1*
X601069Y1521447D1*
Y1518573D1*
X602020Y1516672D1*
X602993Y1515699D1*
X605845Y1514748D1*
X614467D1*
Y1534844D1*
X594894Y1518595D2*
X592970Y1517622D1*
X590096Y1514770D1*
Y1534844D1*
X577222Y1509509D2*
X579145Y1511410D1*
X581047Y1514284D1*
X582970Y1518109D1*
X583921Y1522906D1*
Y1526731D1*
X582970Y1531506D1*
X581047Y1535331D1*
X579145Y1538205D1*
X577222Y1540106D1*
X565298Y1514770D2*
X568172Y1515721D1*
X570096Y1518595D1*
X571046Y1523370D1*
Y1526244D1*
X570096Y1531020D1*
X568172Y1533894D1*
X565298Y1534844D1*
X563397D1*
X560523Y1533894D1*
X558622Y1531020D1*
X557649Y1526244D1*
Y1523370D1*
X558622Y1518595D1*
X560523Y1515721D1*
X563397Y1514770D1*
X565298D1*
X558622Y1518595D2*
X570096Y1531020D1*
X551473Y1509509D2*
X549550Y1511410D1*
X547649Y1514284D1*
X545725Y1518109D1*
X544775Y1522906D1*
Y1526731D1*
X545725Y1531506D1*
X547649Y1535331D1*
X549550Y1538205D1*
X551473Y1540106D1*
X610005Y1627503D2*
X601383D1*
X598531Y1626552D1*
X597558Y1625579D1*
X596607Y1623678D1*
Y1620804D1*
X597558Y1618903D1*
X598531Y1617930D1*
X601383Y1616979D1*
X610005D1*
Y1637075D1*
X590432Y1620826D2*
X588508Y1619853D1*
X585634Y1617001D1*
Y1637075D1*
X572760Y1611740D2*
X574683Y1613641D1*
X576585Y1616515D1*
X578508Y1620340D1*
X579459Y1625137D1*
Y1628962D1*
X578508Y1633737D1*
X576585Y1637562D1*
X574683Y1640436D1*
X572760Y1642337D1*
X566584Y1620826D2*
X564661Y1619853D1*
X561787Y1617001D1*
Y1637075D1*
X555611Y1611740D2*
X553688Y1613641D1*
X551787Y1616515D1*
X549863Y1620340D1*
X548913Y1625137D1*
Y1628962D1*
X549863Y1633737D1*
X551787Y1637562D1*
X553688Y1640436D1*
X555611Y1642337D1*
X613810Y1726321D2*
X605188D1*
X602337Y1725371D1*
X601364Y1724398D1*
X600413Y1722497D1*
Y1719623D1*
X601364Y1717722D1*
X602337Y1716749D1*
X605188Y1715798D1*
X613810D1*
Y1735894D1*
X588489Y1715820D2*
X591363Y1716771D1*
X593287Y1719645D1*
X594238Y1724420D1*
Y1727294D1*
X593287Y1732070D1*
X591364Y1734944D1*
X588490Y1735894D1*
X586588D1*
X583714Y1734944D1*
X581813Y1732070D1*
X580840Y1727294D1*
Y1724420D1*
X581813Y1719645D1*
X583714Y1716771D1*
X586588Y1715820D1*
X588489D1*
X581813Y1719645D2*
X593287Y1732070D1*
X567966Y1710559D2*
X569889Y1712460D1*
X571790Y1715334D1*
X573714Y1719159D1*
X574665Y1723956D1*
Y1727781D1*
X573714Y1732556D1*
X571791Y1736381D1*
X569889Y1739255D1*
X567966Y1741156D1*
X561790Y1719645D2*
X559867Y1718672D1*
X556993Y1715820D1*
Y1735894D1*
X550817Y1710559D2*
X548894Y1712460D1*
X546992Y1715334D1*
X545069Y1719159D1*
X544118Y1723956D1*
Y1727781D1*
X545069Y1732556D1*
X546992Y1736381D1*
X548894Y1739255D1*
X550817Y1741156D1*
X619978Y1824747D2*
X611356D1*
X608505Y1823796D1*
X607532Y1822823D1*
X606581Y1820922D1*
Y1818048D1*
X607532Y1816147D1*
X608505Y1815174D1*
X611356Y1814223D1*
X619978D1*
Y1834319D1*
X594657Y1814245D2*
X597531Y1815196D1*
X599455Y1818070D1*
X600405Y1822845D1*
X600406Y1825719D1*
X599455Y1830495D1*
X597532Y1833369D1*
X594658Y1834319D1*
X592756D1*
X589882Y1833369D1*
X587981Y1830495D1*
X587008Y1825719D1*
Y1822845D1*
X587981Y1818070D1*
X589882Y1815196D1*
X592756Y1814245D1*
X594657D1*
X587981Y1818070D2*
X599455Y1830495D1*
X574134Y1808984D2*
X576057Y1810885D1*
X577958Y1813759D1*
X579882Y1817584D1*
X580833Y1822381D1*
Y1826206D1*
X579882Y1830981D1*
X577959Y1834806D1*
X576057Y1837680D1*
X574134Y1839581D1*
X566035Y1814245D2*
X555534D1*
X561259Y1821895D1*
X558385D1*
X556484Y1822845D1*
X555534Y1823796D1*
X554561Y1826670D1*
Y1828571D1*
X555534Y1831445D1*
X557435Y1833369D1*
X560309Y1834319D1*
X563183D1*
X566035Y1833369D1*
X566985Y1832396D1*
X567958Y1830495D1*
X548385Y1808984D2*
X546462Y1810885D1*
X544560Y1813759D1*
X542637Y1817584D1*
X541686Y1822381D1*
Y1826206D1*
X542637Y1830981D1*
X544560Y1834806D1*
X546462Y1837680D1*
X548385Y1839581D1*
X622341Y1924484D2*
X613719D1*
X610867Y1923534D1*
X609894Y1922561D1*
X608943Y1920660D1*
Y1917786D1*
X609894Y1915884D1*
X610867Y1914912D1*
X613719Y1913961D1*
X622341D1*
Y1934057D1*
X597020Y1913983D2*
X599894Y1914934D1*
X601817Y1917808D1*
X602768Y1922583D1*
Y1925457D1*
X601817Y1930232D1*
X599894Y1933106D1*
X597020Y1934057D1*
X595118D1*
X592244Y1933106D1*
X590343Y1930232D1*
X589370Y1925457D1*
Y1922583D1*
X590343Y1917808D1*
X592244Y1914934D1*
X595118Y1913983D1*
X597020D1*
X590343Y1917808D2*
X601817Y1930232D1*
X576496Y1908721D2*
X578419Y1910623D1*
X580321Y1913497D1*
X582244Y1917321D1*
X583195Y1922119D1*
Y1925943D1*
X582244Y1930719D1*
X580321Y1934543D1*
X578419Y1937417D1*
X576496Y1939319D1*
X558846Y1913983D2*
X568397D1*
X569348Y1922583D1*
X568397Y1921632D1*
X565523Y1920660D1*
X562671D1*
X559797Y1921632D1*
X557874Y1923534D1*
X556923Y1926408D1*
Y1928309D1*
X557874Y1931183D1*
X559797Y1933106D1*
X562671Y1934057D1*
X565523D1*
X568397Y1933106D1*
X569348Y1932134D1*
X570320Y1930232D1*
X550747Y1908721D2*
X548824Y1910623D1*
X546923Y1913497D1*
X544999Y1917321D1*
X544049Y1922119D1*
Y1925943D1*
X544999Y1930719D1*
X546923Y1934543D1*
X548824Y1937417D1*
X550747Y1939319D1*
X624178Y2022122D2*
X615556D1*
X612704Y2021171D1*
X611731Y2020199D1*
X610781Y2018297D1*
Y2015423D1*
X611731Y2013522D1*
X612704Y2012549D1*
X615556Y2011599D1*
X624178D1*
Y2031695D1*
X598857Y2011621D2*
X601731Y2012571D1*
X603654Y2015445D1*
X604605Y2020221D1*
Y2023095D1*
X603654Y2027870D1*
X601731Y2030744D1*
X598857Y2031695D1*
X596956D1*
X594082Y2030744D1*
X592180Y2027870D1*
X591208Y2023095D1*
Y2020221D1*
X592180Y2015445D1*
X594082Y2012571D1*
X596956Y2011621D1*
X598857D1*
X592180Y2015445D2*
X603654Y2027870D1*
X578333Y2006359D2*
X580257Y2008260D1*
X582158Y2011134D1*
X584081Y2014959D1*
X585032Y2019756D1*
Y2023581D1*
X584081Y2028356D1*
X582158Y2032181D1*
X580257Y2035055D1*
X578333Y2036956D1*
X568333Y2031695D2*
X558760Y2011621D1*
X572158D1*
X552585Y2006359D2*
X550661Y2008260D1*
X548760Y2011134D1*
X546837Y2014959D1*
X545886Y2019756D1*
Y2023581D1*
X546837Y2028356D1*
X548760Y2032181D1*
X550661Y2035055D1*
X552585Y2036956D1*
X816234Y714709D2*
D40*
X790368D1*
X781813Y711857D1*
X778894Y708939D1*
X776042Y703235D1*
Y694613D1*
X778894Y688910D1*
X781813Y685991D1*
X790368Y683139D1*
X816234D1*
Y743427D1*
X717323Y691761D2*
X723027Y685991D1*
X731649Y683139D1*
X743123D1*
X751745Y685991D1*
X757515Y691761D1*
Y697465D1*
X754597Y703235D1*
X751745Y706087D1*
X746041Y708939D1*
X728797Y714709D1*
X723027Y717561D1*
X720175Y720480D1*
X717323Y726183D1*
Y734805D1*
X723027Y740509D1*
X731649Y743427D1*
X743123D1*
X751745Y740509D1*
X757515Y734805D1*
X684470Y703235D2*
X690174Y706087D1*
X695944Y711857D1*
X698796Y720479D1*
Y726183D1*
X695944Y734805D1*
X690174Y740509D1*
X684471Y743427D1*
X675848D1*
X670078Y740509D1*
X664375Y734805D1*
X661456Y726183D1*
Y720479D1*
X664374Y711857D1*
X670078Y706087D1*
X675848Y703235D1*
X684470D1*
X599885Y697465D2*
X602737Y691761D1*
X608507Y685991D1*
X614211Y683139D1*
X625685D1*
X631455Y685991D1*
X637159Y691761D1*
X640077Y697465D1*
X642929Y706087D1*
Y720479D1*
X640077Y729035D1*
X637159Y734805D1*
X631455Y740509D1*
X625685Y743427D1*
X614211D1*
X608507Y740509D1*
X602737Y734805D1*
X599885Y729035D1*
X523037Y694680D2*
X517267Y691761D1*
X508645Y683206D1*
Y743427D1*
X840144Y1243544D2*
D38*
X841570Y1240692D1*
X844455Y1237807D1*
X847307Y1236381D1*
X853044D1*
X855929Y1237807D1*
X858781Y1240692D1*
X860240Y1243544D1*
X861666Y1247855D1*
Y1255051D1*
X860240Y1259329D1*
X858781Y1262214D1*
X855929Y1265066D1*
X853044Y1266525D1*
X847307D1*
X844456Y1265066D1*
X841570Y1262214D1*
X840145Y1259329D1*
X830881Y1236381D2*
X819407Y1250740D1*
Y1266525D1*
X807933Y1236381D2*
X819407Y1250740D1*
X791507Y1236415D2*
X795784Y1237841D1*
X797244Y1240692D1*
Y1243577D1*
X795784Y1246429D1*
X792933Y1247888D1*
X787196Y1249314D1*
X782885Y1250740D1*
X780033Y1253625D1*
X778607Y1256477D1*
Y1260788D1*
X780033Y1263640D1*
X781459Y1265099D1*
X785770Y1266525D1*
X791507D1*
X795784Y1265099D1*
X797244Y1263640D1*
X798670Y1260788D1*
Y1256477D1*
X797244Y1253625D1*
X794359Y1250740D1*
X790081Y1249314D1*
X784344Y1247888D1*
X781459Y1246429D1*
X780033Y1243577D1*
Y1240692D1*
X781459Y1237840D1*
X785770Y1236415D1*
X791507D1*
X747821Y1243544D2*
X749247Y1240692D1*
X752132Y1237807D1*
X754984Y1236381D1*
X760721D1*
X763606Y1237807D1*
X766458Y1240692D1*
X767917Y1243544D1*
X769343Y1247855D1*
Y1255051D1*
X767917Y1259329D1*
X766458Y1262214D1*
X763606Y1265066D1*
X760721Y1266525D1*
X754984D1*
X752132Y1265066D1*
X749247Y1262214D1*
X747821Y1259329D1*
X737099Y1243577D2*
Y1242152D1*
X735673Y1239266D1*
X734247Y1237840D1*
X731362Y1236415D1*
X725625D1*
X722773Y1237840D1*
X721347Y1239266D1*
X719888Y1242151D1*
Y1245003D1*
X721347Y1247888D1*
X724199Y1252166D1*
X738558Y1266525D1*
X718462D1*
X709198Y1242151D2*
X706313Y1240692D1*
X702002Y1236415D1*
Y1266525D1*
X691279Y1243577D2*
Y1242151D1*
X689853Y1239266D1*
X688427Y1237840D1*
X685542Y1236415D1*
X679805D1*
X676953Y1237840D1*
X675528Y1239266D1*
X674068Y1242151D1*
Y1245003D1*
X675528Y1247888D1*
X678379Y1252166D1*
X692738Y1266525D1*
X672642D1*
X661920Y1243577D2*
Y1242151D1*
X660494Y1239266D1*
X659068Y1237840D1*
X656183Y1236415D1*
X650446D1*
X647594Y1237840D1*
X646168Y1239266D1*
X644709Y1242151D1*
Y1245003D1*
X646168Y1247888D1*
X649020Y1252166D1*
X663379Y1266525D1*
X643283D1*
X631134Y1236415D2*
X615382D1*
X623971Y1247888D1*
X619660D1*
X616808Y1249314D1*
X615382Y1250740D1*
X613923Y1255051D1*
Y1257903D1*
X615382Y1262214D1*
X618234Y1265099D1*
X622545Y1266525D1*
X626856D1*
X631134Y1265099D1*
X632560Y1263640D1*
X634019Y1260788D1*
X604660Y1251470D2*
X588079D1*
X577356Y1243577D2*
Y1242151D1*
X575930Y1239266D1*
X574504Y1237840D1*
X571619Y1236415D1*
X565882D1*
X563030Y1237840D1*
X561604Y1239266D1*
X560145Y1242151D1*
Y1245003D1*
X561604Y1247888D1*
X564456Y1252166D1*
X578815Y1266525D1*
X558719D1*
X535097D2*
Y1236415D1*
X549456Y1256477D1*
X527934D1*
X498574Y1240692D2*
X501426Y1237807D1*
X505737Y1236381D1*
X511474D1*
X515785Y1237807D1*
X518670Y1240692D1*
Y1243544D1*
X517211Y1246429D1*
X515785Y1247855D1*
X512933Y1249281D1*
X504311Y1252166D1*
X501426Y1253592D1*
X500000Y1255051D1*
X498574Y1257903D1*
Y1262214D1*
X501426Y1265066D1*
X505737Y1266525D1*
X511474D1*
X515785Y1265066D1*
X518670Y1262214D1*
X489311Y1236381D2*
X469215Y1266525D1*
Y1236381D2*
X489311Y1266525D1*
X459951Y1236381D2*
Y1266525D1*
X434788Y690893D2*
D41*
X432356Y695702D1*
X425226Y702887D1*
X475411D1*
X848960Y700330D2*
D37*
Y681229D1*
X866159Y679328D1*
X864258Y681229D1*
X862313Y686977D1*
Y692681D1*
X864258Y698429D1*
X868061Y702276D1*
X873809Y704177D1*
X877611D1*
X883359Y702276D1*
X887206Y698429D1*
X889107Y692681D1*
Y686977D1*
X887206Y681229D1*
X885261Y679328D1*
X881458Y677383D1*
M02*
